<svg width="22" height="21" viewBox="0 0 22 21" fill="none" xmlns="http://www.w3.org/2000/svg">
<path d="M20.6516 13.2512C20.4334 13.0319 20.1739 12.858 19.8881 12.7395C19.6023 12.6211 19.2958 12.5605 18.9864 12.5612H17.5513C17.5493 12.2417 17.5191 11.923 17.461 11.6089C18.0911 11.4065 18.6409 11.0098 19.0317 10.4757C19.4225 9.94165 19.6342 9.29758 19.6365 8.6358V7.70941C20.3769 7.38814 21.0003 6.84642 21.4218 6.15805C21.8432 5.46968 22.0422 4.66812 21.9917 3.86256C22.0443 3.05463 21.8463 2.25014 21.4248 1.55887C21.0033 0.867596 20.3788 0.323213 19.6365 0V3.86177C19.6365 4.06999 19.5538 4.26967 19.4065 4.4169C19.2593 4.56413 19.0596 4.64685 18.8514 4.64685C18.6432 4.64685 18.4435 4.56413 18.2963 4.4169C18.149 4.26967 18.0663 4.06999 18.0663 3.86177V0C17.3241 0.323167 16.6997 0.867428 16.2782 1.55854C15.8567 2.24965 15.6587 3.05397 15.7111 3.86177C15.6606 4.66733 15.8596 5.46889 16.281 6.15726C16.7025 6.84564 17.3259 7.38736 18.0663 7.70863V8.6358C18.0654 8.96818 17.959 9.29168 17.7625 9.55974C17.5659 9.82779 17.2894 10.0266 16.9727 10.1274C16.753 9.67661 16.4719 9.25838 16.1374 8.88467C15.3976 8.06573 14.4284 7.48851 13.3559 7.22817V6.28058C13.3559 6.07237 13.2732 5.87268 13.1259 5.72545C12.9787 5.57822 12.779 5.49551 12.5708 5.49551C12.3626 5.49551 12.1629 5.57822 12.0157 5.72545C11.8685 5.87268 11.7857 6.07237 11.7857 6.28058V7.06566H10.2156V6.28058C10.2156 6.07237 10.1329 5.87268 9.98565 5.72545C9.83842 5.57822 9.63873 5.49551 9.43052 5.49551C9.22231 5.49551 9.02262 5.57822 8.87539 5.72545C8.72816 5.87268 8.64545 6.07237 8.64545 6.28058V7.22817C7.57336 7.48765 6.60416 8.06375 5.86393 8.88153C5.52922 9.25621 5.24811 9.67551 5.02862 10.1274C4.71192 10.0266 4.4354 9.82779 4.23887 9.55974C4.04235 9.29168 3.93595 8.96818 3.93501 8.6358V7.70941C4.67546 7.38814 5.29887 6.84642 5.72032 6.15805C6.14178 5.46968 6.34078 4.66812 6.29023 3.86256C6.34284 3.05463 6.14488 2.25014 5.72338 1.55887C5.30187 0.867596 4.67734 0.323213 3.93501 0V3.86177C3.93501 4.06999 3.8523 4.26967 3.70507 4.4169C3.55784 4.56413 3.35815 4.64685 3.14994 4.64685C2.94172 4.64685 2.74204 4.56413 2.59481 4.4169C2.44758 4.26967 2.36487 4.06999 2.36487 3.86177V0C1.62267 0.323167 0.99823 0.867428 0.576734 1.55854C0.155238 2.24965 -0.0427955 3.05397 0.00964712 3.86177C-0.0409047 4.66733 0.1581 5.46889 0.579553 6.15726C1.00101 6.84564 1.62442 7.38736 2.36487 7.70863V8.6358C2.36714 9.29758 2.57883 9.94165 2.96962 10.4757C3.36041 11.0098 3.91024 11.4065 4.5403 11.6089C4.48227 11.923 4.45206 12.2417 4.45002 12.5612H3.01491C2.70552 12.5605 2.39907 12.6211 2.11326 12.7395C1.82745 12.858 1.56795 13.0319 1.34977 13.2512L0.239673 14.3613C0.164691 14.4338 0.104882 14.5204 0.0637376 14.6162C0.0225927 14.712 0.000935472 14.815 2.96418e-05 14.9192C-0.000876188 15.0234 0.0189875 15.1268 0.0584617 15.2233C0.0979358 15.3198 0.15623 15.4074 0.229943 15.4812C0.303655 15.5549 0.39131 15.6132 0.487792 15.6526C0.584275 15.6921 0.687653 15.712 0.791895 15.7111C0.896136 15.7102 0.999153 15.6885 1.09494 15.6474C1.19072 15.6062 1.27735 15.5464 1.34977 15.4714L2.45986 14.3613C2.60705 14.2141 2.80671 14.1314 3.01491 14.1313H4.58505L4.61881 14.4555C4.64458 14.682 4.69486 14.9049 4.76876 15.1205L3.7199 15.4659C3.34335 15.5902 3.0045 15.808 2.7351 16.099C2.4657 16.3899 2.27456 16.7445 2.17959 17.1295L1.60334 19.4368C1.55302 19.6388 1.58495 19.8525 1.69212 20.0309C1.7993 20.2093 1.97294 20.3379 2.17488 20.3883C2.23703 20.4038 2.30082 20.4117 2.36487 20.4119C2.53985 20.4117 2.70975 20.353 2.84757 20.2452C2.9854 20.1374 3.08325 19.9866 3.1256 19.8168L3.69949 17.5134C3.7315 17.3851 3.79542 17.2669 3.88532 17.1698C3.97522 17.0728 4.08818 17.0001 4.21371 16.9584L5.65432 16.4787C6.22872 16.9906 6.97163 17.2729 7.74104 17.2716H14.2571C15.0266 17.2729 15.7695 16.9906 16.3439 16.4787L17.7821 16.9584C17.9077 17.0001 18.0206 17.0728 18.1105 17.1698C18.2004 17.2669 18.2643 17.3851 18.2963 17.5134L18.8718 19.8168C18.9143 19.9872 19.0128 20.1385 19.1514 20.2464C19.29 20.3543 19.4608 20.4125 19.6365 20.4119C19.7008 20.4118 19.7648 20.4038 19.8272 20.3883C20.0292 20.3379 20.2028 20.2093 20.31 20.0309C20.4172 19.8525 20.4491 19.6388 20.3988 19.4368L19.8225 17.1326C19.7274 16.7476 19.5362 16.393 19.2669 16.102C18.9975 15.8109 18.6587 15.5929 18.2822 15.4683L17.2365 15.1205C17.3098 14.9048 17.3598 14.6819 17.3857 14.4555L17.4186 14.1313H18.9888C19.197 14.1314 19.3966 14.2141 19.5438 14.3613L20.6539 15.4714C20.802 15.6144 21.0003 15.6936 21.2061 15.6918C21.412 15.69 21.6089 15.6074 21.7544 15.4619C21.9 15.3163 21.9826 15.1194 21.9844 14.9136C21.9862 14.7077 21.907 14.5094 21.764 14.3613L20.6516 13.2512Z" fill="#D46549"/>
</svg>
