<svg width="24" height="24" viewBox="0 0 24 24" fill="none" xmlns="http://www.w3.org/2000/svg">
<g id="icon / Fish">
<path id="i" d="M15.0469 6.18368C14.6656 6.16088 14.305 6.16088 13.9569 6.17124C12.8295 5.17033 11.3354 4.39738 10.5645 4.03473C10.3262 3.92282 10.0548 4.09482 10.0548 4.358V7.16801C8.90258 7.80834 8.0944 8.67662 7.53281 9.52833C7.30279 9.87647 6.91527 10.0858 6.49874 10.0858H6.24593C5.86049 10.0858 5.49576 9.91169 5.25331 9.61122L5.24916 9.60707C3.8566 7.88708 2.11174 6.99186 1.35122 7.60733C0.590694 8.22279 1.10669 10.1148 2.49926 11.8348C2.58837 11.9446 2.67747 12.0503 2.76865 12.1518C3.01525 12.4274 3.01525 12.8419 2.76865 13.1196C2.67747 13.2211 2.58837 13.3268 2.49926 13.4366C1.10669 15.1566 0.592766 17.0486 1.35122 17.6641C2.10967 18.2795 3.85452 17.3843 5.24916 15.6643V15.6602C5.42945 15.4426 5.6947 15.3141 5.97653 15.3141H6.76192C7.06033 15.3141 7.34009 15.4612 7.51001 15.7058C8.23531 16.7378 9.17405 17.4693 10.0527 17.977V20.5362C10.0527 20.8533 10.3822 21.0605 10.6682 20.9217C11.3914 20.5694 12.643 19.898 13.8201 18.9758C19.8442 18.5531 22.1361 14.8541 22.8469 13.2646C23.0521 12.8067 23.05 12.2844 22.8469 11.8265C20.843 7.24675 15.0448 6.18575 15.0448 6.18575L15.0469 6.18368ZM17.1005 13.5527C16.4084 13.6584 15.8219 13.0719 15.9276 12.3798C15.9939 11.9487 16.3462 11.5965 16.7772 11.5301C17.4694 11.4245 18.0558 12.0109 17.9501 12.703C17.8838 13.1341 17.5315 13.4864 17.1005 13.5527Z" fill="#7F84EB"/>
</g>
</svg>
