<svg width="100%" viewBox="0 0 16 16" fill="none" xmlns="http://www.w3.org/2000/svg">
<g id="icon / Humster">
<path id="Vector" d="M13.6897 7.75623C13.6897 7.75623 14.1473 6.27374 12.9774 4.52904C13.239 4.06625 14.1104 2.34508 13.0869 1.51475C13.0869 1.51475 12.0368 0.785271 10.3516 2.2532C10.0427 2.09856 9.72229 1.96521 9.39263 1.85764C9.06528 1.75119 8.70565 1.67275 8.22154 1.67387C7.73743 1.67387 7.3778 1.75119 7.05045 1.85764C6.71964 1.96521 6.3992 2.09856 6.09145 2.2532C4.40743 0.785271 3.35737 1.51475 3.35737 1.51475C2.33497 2.34508 3.20522 4.06625 3.46687 4.52904C2.29808 6.27374 2.75453 7.75623 2.75453 7.75623C2.85251 8.68293 4.38207 8.665 4.38207 8.665C3.66628 9.07624 3.14528 8.88687 3.14528 8.88687C2.65656 10.3738 3.14528 11.5134 3.14528 11.5134C3.46802 12.792 4.23453 13.2649 4.71403 13.4386C4.64948 13.7826 4.61029 14.2543 4.81085 14.4717C4.81085 14.4717 5.09441 14.8516 5.73067 14.5513C5.73067 14.5513 6.25628 14.4 6.64357 13.1988C7.4654 13.0789 8.22269 13.0329 8.22269 13.0329C8.22269 13.0329 8.97883 13.0789 9.80182 13.1988C10.1891 14.4 10.7147 14.5513 10.7147 14.5513C11.351 14.8516 11.6345 14.4717 11.6345 14.4717C11.8351 14.2543 11.7959 13.7826 11.7314 13.4386C12.212 13.2649 12.9774 12.792 13.3001 11.5134C13.3001 11.5134 13.7888 10.375 13.3001 8.88687C13.3001 8.88687 12.7791 9.07624 12.0633 8.665C12.0633 8.665 13.5929 8.68293 13.6909 7.75623H13.6897ZM5.73067 4.50439C6.23899 4.50439 6.65048 4.90442 6.65048 5.39859C6.65048 5.89275 6.23899 6.29279 5.73067 6.29279C5.22235 6.29279 4.81085 5.89275 4.81085 5.39859C4.81085 4.90442 5.22235 4.50439 5.73067 4.50439ZM7.06313 11.4552C7.01587 11.5078 6.9836 11.537 6.94095 11.5784C6.61936 11.9404 5.98886 11.9639 5.6592 11.6008C5.32724 11.2075 5.03677 10.803 4.8097 10.3257C5.2869 10.5531 5.68456 10.8434 6.07762 11.165C6.17559 11.2322 6.32774 11.2266 6.40843 11.1437L6.51101 11.0495C6.62282 10.9644 6.65394 10.7974 6.56634 10.6831C6.3312 10.3055 6.11796 9.9245 5.97042 9.48637C6.37269 9.73065 6.70235 10.022 7.02279 10.3346C7.3317 10.6248 7.34553 11.1392 7.06198 11.4529L7.06313 11.4552ZM8.22154 8.71991C8.12241 8.78266 8.00369 8.81964 7.8769 8.81964C7.32478 8.81964 6.8764 8.38262 6.8764 7.847V7.75847C6.8764 7.60384 7.0055 7.47833 7.16456 7.47833C7.32363 7.47833 7.45272 7.60384 7.45272 7.75847V7.847C7.45272 8.07447 7.64291 8.25936 7.8769 8.25936C7.90802 8.25936 7.93338 8.23471 7.93338 8.20445V7.30577L7.44235 6.82057C7.33861 6.7186 7.41353 6.54603 7.56107 6.54603H8.88431C9.03185 6.54603 9.10562 6.7186 9.00304 6.82057L8.51201 7.30577V8.20445C8.51201 8.23471 8.53737 8.25936 8.56849 8.25936C8.80248 8.25936 8.99266 8.07447 8.99266 7.847V7.75847C8.99266 7.60384 9.12176 7.47833 9.28083 7.47833C9.43989 7.47833 9.56899 7.60384 9.56899 7.75847V7.847C9.56899 8.38374 9.11945 8.81964 8.56849 8.81964C8.4417 8.81964 8.32297 8.78266 8.22385 8.71991H8.22154ZM10.7827 11.602C10.4531 11.965 9.82372 11.9415 9.50098 11.5796C9.45833 11.537 9.42606 11.509 9.3788 11.4563C9.09525 11.1425 9.10908 10.6271 9.41799 10.338C9.73843 10.0254 10.0681 9.73401 10.4704 9.48973C10.3228 9.92786 10.1107 10.3089 9.87444 10.6865C9.78684 10.8008 9.81681 10.9666 9.92977 11.0529L10.0324 11.147C10.1142 11.2288 10.2652 11.2355 10.3632 11.1683C10.7562 10.8456 11.1539 10.5565 11.6311 10.329C11.404 10.8064 11.1147 11.2109 10.7816 11.6042L10.7827 11.602ZM10.7124 6.29279C10.2041 6.29279 9.7926 5.89275 9.7926 5.39859C9.7926 4.90442 10.2041 4.50439 10.7124 4.50439C11.2207 4.50439 11.6322 4.90442 11.6322 5.39859C11.6322 5.89275 11.2207 6.29279 10.7124 6.29279Z" fill="#12A50A"/>
</g>
</svg>
