<svg width="24" height="24" viewBox="0 0 24 24" fill="none" xmlns="http://www.w3.org/2000/svg">
<g id="icon / Kraken">
<path id="i" fill-rule="evenodd" clip-rule="evenodd" d="M7.19576 9.49169C7.35855 9.76774 7.44479 10.0798 7.44479 10.3939L7.44481 11.3067C7.44481 11.4461 7.33941 11.5627 7.20182 11.5762C7.10345 11.5858 4.77245 11.7891 3.81031 9.82041C3.47134 9.12583 3.43208 8.38372 3.44001 7.68515L3.44005 7.66183C3.44005 7.0946 3.20076 6.54245 2.78333 6.14685C2.33939 5.72629 1.67568 5.63107 1.13142 5.90993L1 5.97766L1.7228 6.66187C2.32167 7.22847 2.65928 8.022 2.65043 8.8389C2.64161 9.64739 2.76936 10.4023 3.02027 11.0218C3.61217 12.4873 5.68935 13.2309 5.70987 13.2382C5.81675 13.2756 5.88896 13.3761 5.89036 13.4897C5.89229 13.6034 5.8232 13.7061 5.71781 13.7468C5.71087 13.7495 4.95528 14.0468 4.21421 14.6745C3.24604 15.4948 2.7549 16.4677 2.7549 17.5659C2.75493 18.7201 3.30382 20.0045 4.38816 21.3872C4.66476 20.9517 4.68897 20.3885 4.4292 19.9299C4.03001 19.2264 3.94137 18.4627 4.1727 17.7215C4.60557 16.336 6.13195 15.0108 8.71055 13.7827C8.8156 13.7328 8.93956 13.7561 9.01977 13.8403C9.09953 13.9244 9.11726 14.0507 9.06316 14.1538C9.05526 14.1689 8.25538 15.7283 8.25538 17.8184C8.25544 19.3248 8.66206 20.7296 9.46469 21.9992C9.71709 21.6077 9.79629 21.1168 9.66945 20.6529C9.43585 19.7982 9.42738 18.8409 9.64426 17.8076C9.94186 16.3918 10.6605 14.8773 11.7817 13.3064C11.8321 13.2356 11.9132 13.1937 12 13.1936C12.0862 13.1936 12.1674 13.2356 12.2177 13.3063C13.3389 14.8773 14.0581 16.3918 14.3551 17.8077C14.572 18.8407 14.5636 19.7981 14.33 20.6529C14.2904 20.7986 14.2703 20.9486 14.2703 21.0979C14.2703 21.424 14.3626 21.735 14.5347 22C15.5365 20.4178 15.9194 18.6453 15.6736 16.7259C15.4782 15.2018 14.9419 14.1641 14.9363 14.1538C14.8826 14.0507 14.8999 13.9245 14.9801 13.8403C15.0599 13.7561 15.1844 13.7329 15.2889 13.7827C17.8675 15.0108 19.3948 16.3362 19.8272 17.7219C20.059 18.463 19.9704 19.2267 19.5711 19.93C19.4518 20.1406 19.3883 20.3797 19.3883 20.6214C19.3883 20.8968 19.4662 21.1606 19.6113 21.3877C20.9773 19.6462 21.4907 18.0724 21.1372 16.7056C20.6117 14.6729 18.3045 13.7563 18.2811 13.7472C18.1762 13.7063 18.1072 13.6036 18.109 13.49C18.111 13.3763 18.1832 13.276 18.2895 13.2387C18.3105 13.2314 20.3878 12.4874 20.9796 11.0226C21.2301 10.4031 21.3583 9.64829 21.3494 8.83936C21.3401 8.02257 21.6782 7.22905 22.2771 6.66242L23 5.97769L22.8676 5.9098C22.6656 5.80575 22.4384 5.75077 22.2104 5.75077C21.8392 5.75076 21.4866 5.89149 21.2165 6.14697C20.7931 6.54812 20.5538 7.10873 20.5603 7.68514C20.5683 8.38371 20.5286 9.12602 20.19 9.82031C19.2284 11.7886 16.8979 11.5859 16.799 11.5762C16.661 11.5628 16.556 11.4462 16.556 11.3067L16.556 10.3928C16.556 10.0769 16.6409 9.76659 16.8018 9.4952C17.3242 8.61045 17.5942 7.59402 17.5816 6.55568C17.5443 3.48136 15.0449 1.00001 11.9995 1.00001C11.9818 0.999963 11.9645 1.00011 11.9468 1.00027C8.89807 1.02883 6.41787 3.5524 6.41787 6.62559C6.41795 7.63672 6.68692 8.62784 7.19576 9.49169ZM14.0483 8.51439C13.9784 8.51439 13.9088 8.48736 13.8561 8.43326C13.7526 8.32648 13.754 8.15507 13.8599 8.05044C15.0207 6.90435 15.0337 4.91334 15.0337 4.89336C15.0337 4.74377 15.1541 4.62264 15.3024 4.62264C15.4508 4.62258 15.571 4.74385 15.571 4.89336C15.571 4.98414 15.5561 7.13357 14.2362 8.43711C14.1841 8.4887 14.1159 8.51448 14.0483 8.51439ZM9.95162 8.51439C9.8835 8.51449 9.81589 8.48876 9.76365 8.43711C8.44338 7.1335 8.42839 4.98421 8.42839 4.89336C8.42848 4.74377 8.54874 4.62264 8.69703 4.62264C8.8454 4.62258 8.96566 4.74381 8.96566 4.89327C8.96576 4.92208 8.98573 6.91068 10.1395 8.05044C10.2454 8.15505 10.2473 8.32648 10.1433 8.43326C10.0907 8.48732 10.0211 8.51448 9.95162 8.51439ZM12 6.99719C11.8513 6.99719 11.7313 6.87606 11.7313 6.72654L11.7313 3.06013C11.7313 2.91061 11.8512 2.78948 11.9999 2.78948C12.1483 2.78941 12.2686 2.91068 12.2686 3.06019L12.2686 6.72647C12.2686 6.876 12.1482 6.99722 12 6.99719Z" fill="#808EA3"/>
</g>
</svg>
