<svg width="22" height="20" viewBox="0 0 22 20" fill="none" xmlns="http://www.w3.org/2000/svg">
<g id="i">
<g id="Group">
<path id="Vector" d="M21.5945 11.0104C21.4158 10.9887 21.2408 11.0731 21.1464 11.2265C20.816 11.7823 20.3121 12.2142 19.7123 12.4557C19.3839 12.5762 19.0378 12.6419 18.688 12.6503C17.5521 12.6774 16.5057 12.0359 16.0145 11.0114C16.614 9.6046 16.9607 8.10314 17.0388 6.576C17.0388 3.25235 14.3445 0.558044 11.0209 0.558044C7.69726 0.558044 5.00285 3.25235 5.00285 6.576C5.06321 8.10026 5.39264 9.60186 5.97599 11.0114C5.28048 12.3466 3.70326 12.96 2.28838 12.4454C1.68895 12.2033 1.18526 11.7716 0.854291 11.2162C0.737133 11.0251 0.503488 10.9402 0.290922 11.0114C0.0927132 11.1 -0.0238691 11.3082 0.0041241 11.5235C0.2491 13.3227 1.45425 14.8458 3.14882 15.498C4.53422 16.0151 6.07668 15.8991 7.36907 15.1804C7.13211 16.2166 6.34518 17.039 5.32038 17.3213C4.70136 17.5114 4.03577 17.4825 3.43562 17.2393C3.22737 17.1526 2.98686 17.2256 2.86197 17.4135C2.72955 17.5934 2.76104 17.8454 2.93366 17.9871C4.87398 19.9271 8.01954 19.9268 9.95952 17.9865C10.3959 17.5501 10.7471 17.0362 10.9952 16.4711C11.5656 17.7981 12.6886 18.8088 14.0682 19.2368C14.5327 19.3791 15.0165 19.4482 15.5023 19.4417C16.8101 19.4479 18.0654 18.9273 18.985 17.9974C19.1576 17.8556 19.1891 17.6036 19.0567 17.4237C18.9354 17.2374 18.6985 17.1642 18.4933 17.2496C17.8897 17.4934 17.2206 17.5224 16.5983 17.3315C15.5723 17.0512 14.7845 16.228 14.5496 15.1907C15.296 15.614 16.1396 15.8364 16.9978 15.836L17.0797 15.8258C19.5604 15.8137 21.6553 13.9807 21.9965 11.5235C22.0273 11.2708 21.8473 11.0411 21.5945 11.0104ZM9.40834 10.8884C9.40806 10.8884 9.40782 10.8884 9.40753 10.8884C9.04544 10.8882 8.75216 10.5945 8.75235 10.2325C8.75259 9.8707 9.04578 9.57752 9.40753 9.57728C9.76961 9.57703 10.0633 9.87036 10.0635 10.2325C10.0637 10.5945 9.77038 10.8882 9.40834 10.8884ZM12.5727 10.8884C12.2106 10.8887 11.917 10.5954 11.9167 10.2333C11.9165 9.87118 12.2098 9.57752 12.5719 9.57728C12.5722 9.57728 12.5724 9.57728 12.5727 9.57728C12.9348 9.57752 13.2281 9.87118 13.2279 10.2333C13.2277 10.595 12.9345 10.8882 12.5727 10.8884Z" fill="#5695F3"/>
</g>
</g>
</svg>
