<svg width="22" height="21" viewBox="0 0 22 21" fill="none" xmlns="http://www.w3.org/2000/svg">
<g id="Group">
<path id="Vector" d="M17.4023 7.69019C17.0464 7.69019 16.7578 7.40161 16.7578 7.04566C16.7578 6.6897 17.0464 6.40112 17.4023 6.40112H21.2792C21.3726 6.18589 21.4569 5.96499 21.5313 5.73868L21.9677 4.41098C22.0548 4.14595 21.9615 3.85497 21.7366 3.68997C21.6244 3.60768 18.942 1.67456 14.9101 1.67456C12.9977 1.67456 11.6165 1.96387 9.98388 2.7065C7.7709 3.71313 5.90558 5.3257 4.58962 7.36994C3.27366 9.41418 2.57808 11.7797 2.57808 14.2109V15.6577C0.99911 16.5123 0 18.2966 0 20.323V20.3234C0.000386719 20.9294 0.760891 21.2 1.14396 20.7304L1.14507 20.729C1.15852 20.7125 2.51341 19.0769 4.29688 19.0769C6.08034 19.0769 7.43519 20.7125 7.4476 20.7277C7.82934 21.2009 8.59375 20.931 8.59375 20.323C8.59375 18.3084 7.60616 16.533 6.04296 15.6726H6.04291C6.17289 14.7118 6.76178 13.6712 7.70297 12.7597C8.49883 11.989 9.46477 11.4087 10.3606 11.1432C10.2855 11.919 10.113 12.8864 9.94332 13.5995C9.93167 13.6484 9.92579 13.6985 9.92579 13.7488V13.7918C9.92579 14.2426 10.3767 14.5541 10.7984 14.3946C12.4404 13.7732 13.8925 12.4891 14.6762 10.9879C17.0807 10.8603 19.2408 9.61863 20.5661 7.69019H17.4023ZM11.0999 7.43723C11.2634 7.75344 11.1395 8.14231 10.8233 8.30576C10.5071 8.46921 10.1182 8.34538 9.95475 8.02917C9.52858 7.20468 9.52858 5.85551 9.95475 5.03102C10.1182 4.71482 10.5071 4.59098 10.8233 4.75439C11.1395 4.91784 11.2633 5.30671 11.0999 5.62292C10.842 6.12183 10.842 6.93828 11.0999 7.43723ZM13.6362 7.66823C13.8382 7.96132 13.7644 8.36269 13.4713 8.56469C13.1782 8.76668 12.7768 8.69282 12.5748 8.39973C11.8522 7.35138 11.8522 5.70881 12.5748 4.66046C12.7768 4.36737 13.1782 4.29351 13.4713 4.4955C13.7644 4.6975 13.8382 5.09887 13.6362 5.39196C13.2183 5.99821 13.2183 7.0619 13.6362 7.66823ZM15.8984 5.58476C15.5425 5.58476 15.2539 5.29618 15.2539 4.94023C15.2539 4.58428 15.5425 4.2957 15.8984 4.2957C16.2544 4.2957 16.543 4.58428 16.543 4.94023C16.543 5.29618 16.2544 5.58476 15.8984 5.58476Z" fill="#BF6FF4"/>
<path id="Vector_2" d="M5.88671 3.86905C6.94108 2.91768 8.14025 2.1289 9.45015 1.53305C9.77835 1.38378 10.0995 1.25083 10.4179 1.13301C9.84469 0.715268 9.19595 0.400092 8.50183 0.209526C7.15717 -0.159748 5.71965 -0.0380601 4.45422 0.55203C4.08881 0.722444 3.96777 1.18273 4.20216 1.51083L5.88671 3.86905Z" fill="#BF6FF4"/>
</g>
</svg>
