<svg width="24" height="24" viewBox="0 0 24 24" fill="none" xmlns="http://www.w3.org/2000/svg">
<path d="M13.7752 5.96311V5.79251L3.47761 5.86398C3.46588 5.86398 3.45415 5.86398 3.44242 5.86398C2.7409 5.86398 2.17076 5.30375 2.17076 4.61441V4.40231C2.17076 3.71297 2.7409 3.15274 3.44242 3.15274H21.459C21.7828 3.15274 22.0456 2.89452 22.0456 2.57637C22.0456 2.25821 21.7828 2 21.459 2H3.44476C2.09569 2 1 3.07666 1 4.40231V4.61441C1 5.86398 1.97837 6.89452 3.22187 7.00519C3.44242 9.23458 4.43721 14.1291 8.9185 14.4634H13.7775V5.96311H13.7752ZM8.97246 10.0115C8.33194 10.0115 7.81343 9.50202 7.81343 8.87262C7.81343 8.24323 8.33194 7.73372 8.97246 7.73372C9.61298 7.73372 10.1315 8.24323 10.1315 8.87262C10.1315 9.50202 9.61298 10.0115 8.97246 10.0115ZM17.1749 14.4588H14.9671L15.2768 5.86628C15.2768 5.86628 21.1071 5.17233 22.5195 10.77L17.1749 14.4588ZM20.9734 18.9291L17.7497 16.8035V15.155L22.8011 12.1994C22.8011 12.1994 23.8897 16.6744 20.9734 18.9314V18.9291ZM17.2757 17.834L19.9246 19.7545C18.4019 21.6104 16.5132 21.6749 16.5132 21.6749L16.0487 18.6478C16.6775 18.551 17.2734 17.834 17.2734 17.834H17.2757ZM14.9483 18.7654C14.96 18.7723 14.9694 18.7862 14.9694 18.8V22H11.7527C10.8002 22 9.9696 21.3637 9.73733 20.4576L9.48394 19.4732C9.27043 18.6455 9.60594 17.7718 10.3215 17.2876C11.1615 16.7205 12.2971 16.8357 13.0009 17.5573L13.2637 17.8271C13.2637 17.8271 13.2684 17.8317 13.2731 17.834L14.9483 18.7631V18.7654Z" fill="#F2A149"/>
</svg>
