<svg width="16" height="22" viewBox="0 0 16 22" fill="none" xmlns="http://www.w3.org/2000/svg">
<g id="i">
<g id="Group">
<g id="Group_2">
<path id="Vector" d="M3.95328 3.67999L2.95748 4.47663C2.55615 4.79774 2.24858 5.2218 2.06811 5.70309C1.73957 6.57931 1.8616 7.56157 2.39463 8.33072C2.66486 8.72066 3.0236 9.03072 3.43348 9.24191C3.19282 7.67072 3.27918 6.05887 3.69327 4.51724C3.76924 4.23446 3.85621 3.95525 3.95328 3.67999Z" fill="#E7449E"/>
</g>
</g>
<g id="Group_3">
<g id="Group_4">
<path id="Vector_2" d="M13.6536 5.70305C13.4731 5.2218 13.1656 4.79774 12.7642 4.47663L11.7684 3.67999C11.8655 3.95525 11.9525 4.23442 12.0284 4.51724C12.4425 6.05891 12.5288 7.67076 12.2882 9.24187C12.6981 9.03068 13.0568 8.72066 13.3271 8.33067C13.8601 7.56153 13.9821 6.57927 13.6536 5.70305Z" fill="#E7449E"/>
</g>
</g>
<g id="Group_5">
<g id="Group_6">
<path id="Vector_3" d="M9.61615 16.4536H9.95216C10.0559 16.9342 10.2717 17.3735 10.571 17.7427C11.1377 18.4418 12.0026 18.8897 12.9705 18.8897C14.1364 18.8897 15.1906 18.2444 15.7217 17.2057L14.5739 16.6189C14.2643 17.2245 13.6499 17.6007 12.9705 17.6007C12.5313 17.6007 12.1285 17.4423 11.8158 17.1799C11.4221 16.8496 11.1713 16.3544 11.1713 15.8015V14.3381C11.4101 14.2555 11.6282 14.1285 11.8158 13.9668C12.2369 13.6039 12.5042 13.0673 12.5042 12.4691C12.5042 11.9026 12.2645 11.3914 11.8815 11.0305C11.5644 10.7316 11.1489 10.5364 10.6892 10.4988L10.7882 10.1277C11.7264 6.6095 10.7188 2.85789 8.14404 0.283207L7.86083 0L7.57762 0.283164C5.00289 2.85789 3.99528 6.60945 4.93346 10.1277L5.03241 10.4987C4.57273 10.5363 4.15731 10.7316 3.84012 11.0305C3.45718 11.3913 3.21741 11.9025 3.21741 12.469C3.21741 13.0672 3.48477 13.6038 3.90586 13.9667C4.09346 14.1284 4.31157 14.2555 4.55039 14.3381V15.8014C4.55039 16.3543 4.29954 16.8496 3.90586 17.1799C3.59313 17.4423 3.19034 17.6006 2.75116 17.6006C2.07178 17.6006 1.45737 17.2245 1.14778 16.6189L0 17.2057C0.531051 18.2444 1.58525 18.8897 2.75116 18.8897C3.71907 18.8897 4.58404 18.4417 5.15066 17.7427C5.44994 17.3734 5.66573 16.9342 5.7695 16.4536H6.10552V17.7427V18.9117C6.10552 19.9038 5.29839 20.7109 4.30624 20.7109C3.62686 20.7109 3.01245 20.3347 2.70286 19.7291L1.55508 20.3159C2.08618 21.3547 3.14033 22 4.30629 22C6.00918 22 7.39458 20.6146 7.39458 18.9117V17.7427V16.4536H8.32713V17.7427V18.9117C8.32713 20.6146 9.71253 22 11.4155 22C12.5814 22 13.6355 21.3547 14.1666 20.316L13.0188 19.7292C12.7092 20.3347 12.0948 20.7109 11.4154 20.7109C10.4233 20.7109 9.61615 19.9038 9.61615 18.9117V17.7427V16.4536Z" fill="#E7449E"/>
</g>
</g>
</g>
</svg>
