<svg width="24" height="24" viewBox="0 0 24 24" fill="none" xmlns="http://www.w3.org/2000/svg">
<g id="icon / Titan">
<path id="Vector" d="M6.3554 15.7977C5.82122 18.6636 4.51398 20.4924 3.50215 21.5231C3.33245 21.6991 3.10621 21.7871 2.87368 21.7871C2.65369 21.7871 2.43374 21.7053 2.26404 21.5419C1.91839 21.2026 1.91209 20.6495 2.24521 20.2976C3.08734 19.4429 4.18088 17.9094 4.6271 15.4835C4.79051 14.591 4.85964 13.6483 4.83451 12.6553C5.04188 12.5925 5.20529 12.5171 5.35612 12.4542C5.65152 12.3223 5.88405 12.2217 6.4057 12.2217C6.46224 12.2217 6.51882 12.2217 6.56907 12.228C6.63823 13.4787 6.56281 14.6727 6.3554 15.7977ZM20.9925 20.197C20.1567 19.336 19.0569 17.79 18.6106 15.3515C18.4535 14.503 18.3844 13.598 18.4032 12.6553C18.1958 12.5925 18.0261 12.5234 17.8753 12.4542C17.5799 12.3223 17.3474 12.2217 16.8257 12.2217C16.7629 12.2217 16.7126 12.2217 16.6561 12.228C16.6058 13.4347 16.6812 14.5847 16.8823 15.672C17.4102 18.5442 18.73 20.3856 19.7356 21.4225C19.9116 21.5985 20.1378 21.6865 20.3641 21.6865C20.584 21.6865 20.804 21.6048 20.98 21.4351C21.3256 21.102 21.3319 20.5427 20.9925 20.197ZM10.497 12.4857C10.164 12.6302 9.74289 12.7999 9.01384 12.7999C8.91959 12.7999 8.83159 12.7999 8.74989 12.7936C8.76872 14.0191 8.74989 15.1818 8.69331 16.269C8.54877 19.1098 8.17799 20.8883 7.88888 21.875C7.75689 22.3401 8.02713 22.8303 8.49223 22.9623C8.57389 22.9874 8.6556 23 8.7373 23C9.11441 23 9.46635 22.7486 9.57947 22.3652C9.88742 21.2843 10.2959 19.3674 10.4468 16.357C10.5096 15.1441 10.5285 13.8494 10.497 12.4857ZM15.3363 21.7619C15.0534 20.7689 14.6764 18.984 14.5318 16.1245C14.4816 15.0813 14.4627 13.9626 14.4753 12.7936C14.3936 12.7999 14.3056 12.7999 14.2176 12.7999C13.4823 12.7999 13.0612 12.6302 12.7281 12.4794C12.703 13.7929 12.7218 15.0435 12.7847 16.2125C12.9355 19.2417 13.3377 21.1649 13.652 22.2521C13.7651 22.6355 14.117 22.8869 14.4941 22.8869C14.5758 22.8869 14.6575 22.8743 14.7392 22.8492C15.2043 22.7172 15.4746 22.227 15.3363 21.7619ZM20.7852 10.1289C20.7726 10.4494 20.7474 10.7637 20.7097 11.0716C20.628 11.6938 20.0875 12.1651 19.459 12.1651C19.4528 12.1651 19.4465 12.1714 19.4402 12.1714C18.133 12.1714 18.133 11.5932 16.8257 11.5932C15.5248 11.5932 15.5248 12.1714 14.2176 12.1714C12.9167 12.1714 12.9167 11.5932 11.6157 11.5932C10.3148 11.5932 10.3148 12.1714 9.01383 12.1714C7.70664 12.1714 7.70664 11.5932 6.40569 11.5932C5.09846 11.5932 5.09846 12.1714 3.79752 12.1714C3.79122 12.1714 3.79122 12.1714 3.78493 12.1651C3.15021 12.1651 2.60969 11.6875 2.52799 11.059C2.48399 10.6819 2.45887 10.2985 2.45887 9.90265C2.45887 4.47263 7.17242 0.456682 12.7218 1.06003C17.3223 1.5628 20.892 5.50334 20.7852 10.1289ZM17.096 5.64787C17.4542 5.32735 17.404 4.69887 16.9829 4.23381C16.5681 3.77504 15.9459 3.66188 15.594 3.98241C15.242 4.29664 15.2923 4.93141 15.7071 5.39018C16.1219 5.84899 16.744 5.96211 17.096 5.64787ZM18.3404 6.54029C18.1519 6.20093 17.7936 6.04381 17.5422 6.18835C17.2846 6.32663 17.228 6.71628 17.4102 7.04935C17.5925 7.38875 17.9507 7.54587 18.2084 7.4013C18.4661 7.26305 18.5226 6.8734 18.3404 6.54029Z" fill="#BDD269"/>
</g>
</svg>
