<svg width="24" height="24" viewBox="0 0 24 24" fill="none" xmlns="http://www.w3.org/2000/svg">
<path d="M22.4369 10.8022C19.9535 6.85086 16.2049 7.9652 16.2049 7.9652C12.3433 8.28461 8.66827 12.0762 7.2722 13.6859C6.86845 14.1506 6.32115 14.4664 5.71463 14.5759C5.2427 14.662 4.76179 14.4987 4.437 14.1452C3.94712 13.6105 3.80356 12.8371 4.08529 12.1678C4.5016 11.1808 5.2086 10.4989 5.2086 10.4989L7.84642 10.4505C8.29323 10.4415 8.73466 10.3428 9.13662 10.1454C10.1792 9.63402 10.9149 8.78704 11.8893 7.71038L7.37628 7.45558C7.274 7.45019 7.19504 7.36406 7.19504 7.26178L7.23631 3C6.35525 3.36068 5.66977 3.96182 5.05069 4.75676C4.64336 5.28073 4.41547 5.92134 4.40111 6.58528C4.37419 7.8055 4.39932 9.63582 4.39932 9.63582C1.05449 11.0552 1.00425 14.348 1.00425 14.348C0.851724 18.8072 4.8551 20.1243 4.8551 20.1243H19.9229C20.3662 20.1243 20.8112 20.0453 21.2167 19.8677C21.8591 19.5859 22.1839 19.1858 22.4369 18.2491C23.7038 13.1816 22.4369 10.8004 22.4369 10.8004V10.8022ZM14.7263 14.7123C14.2364 14.7123 13.8398 14.3157 13.8398 13.8258C13.8398 13.3359 14.2364 12.9394 14.7263 12.9394C15.2162 12.9394 15.6127 13.3359 15.6127 13.8258C15.6127 14.3157 15.2162 14.7123 14.7263 14.7123Z" fill="#3FB8E1"/>
</svg>
