<svg width="24" height="24" viewBox="0 0 24 24" fill="none" xmlns="http://www.w3.org/2000/svg">
<g id="icon / worn">
<path id="Icon" d="M1.00667 14.7274C0.979594 15.1462 1.03517 15.5663 1.16995 15.9618C1.30473 16.3573 1.51584 16.7196 1.7902 17.0264C2.06457 17.3332 2.39635 17.5779 2.76498 17.7454C3.13362 17.9129 3.53126 17.9995 3.93327 18H5.39995C6.95535 17.9981 8.44654 17.3522 9.54638 16.2038C10.6462 15.0554 11.2649 13.4984 11.2667 11.8744C11.2668 11.767 11.2885 11.661 11.3303 11.563C11.3722 11.465 11.4333 11.3772 11.5097 11.3054C11.586 11.2336 11.676 11.1794 11.7737 11.1462C11.8715 11.113 11.9748 11.1016 12.077 11.1127C12.2591 11.1383 12.4261 11.2321 12.5469 11.3767C12.6676 11.5213 12.7339 11.7068 12.7333 11.8986C12.7413 13.5185 13.3627 15.0692 14.4618 16.2124C15.561 17.3555 17.0487 17.9981 18.6 18H20.0667C20.4687 17.9995 20.8664 17.9129 21.235 17.7454C21.6037 17.5779 21.9354 17.3332 22.2098 17.0264C22.4842 16.7196 22.6953 16.3573 22.8301 15.9618C22.9648 15.5663 23.0204 15.1462 22.9933 14.7274C22.9253 13.9407 22.5754 13.2099 22.0136 12.6809C21.4518 12.152 20.7195 11.8639 19.9631 11.8744H19.3334V13.0229C19.3334 13.1245 19.2948 13.2218 19.226 13.2936C19.1572 13.3654 19.064 13.4058 18.9667 13.4058C18.8695 13.4058 18.7762 13.3654 18.7074 13.2936C18.6387 13.2218 18.6 13.1245 18.6 13.0229V11.8744L18.545 11.1086C18.3736 9.5049 17.666 8.01565 16.5467 6.90293L14.4593 9.08221C14.3901 9.15195 14.2975 9.19054 14.2013 9.18966C14.1052 9.18879 14.0132 9.14853 13.9452 9.07754C13.8773 9.00656 13.8387 8.91053 13.8379 8.81015C13.837 8.70977 13.874 8.61306 13.9408 8.54085L15.9927 6.39829C14.9461 5.56233 13.6825 5.07505 12.3667 5V6.51441C12.3667 6.61595 12.328 6.71333 12.2593 6.78513C12.1905 6.85693 12.0972 6.89727 12 6.89727C11.9028 6.89727 11.8095 6.85693 11.7407 6.78513C11.672 6.71333 11.6333 6.61595 11.6333 6.51441V5C10.3175 5.07505 9.05392 5.56233 8.00726 6.39829L10.0592 8.54085C10.0942 8.57617 10.1222 8.61842 10.1414 8.66513C10.1606 8.71184 10.1707 8.76207 10.1711 8.81291C10.1716 8.86374 10.1623 8.91416 10.1439 8.96121C10.1254 9.00826 10.0982 9.05101 10.0638 9.08695C10.0293 9.1229 9.9884 9.15133 9.94333 9.17058C9.89827 9.18983 9.84999 9.19951 9.8013 9.19907C9.75262 9.19863 9.7045 9.18807 9.65977 9.168C9.61503 9.14794 9.57457 9.11877 9.54075 9.08221L7.4533 6.90259C6.33439 8.01573 5.62691 9.50495 5.45514 11.1086H6.49996C6.59721 11.1086 6.69047 11.149 6.75923 11.2208C6.828 11.2926 6.86663 11.39 6.86663 11.4915C6.86663 11.593 6.828 11.6904 6.75923 11.7622C6.69047 11.834 6.59721 11.8744 6.49996 11.8744H4.03686C3.28046 11.8639 2.54815 12.152 1.98636 12.6809C1.42456 13.2099 1.07468 13.9407 1.00667 14.7274ZM3.93327 14.5543C3.86075 14.5543 3.78986 14.5319 3.72956 14.4898C3.66926 14.4477 3.62227 14.3879 3.59452 14.318C3.56676 14.248 3.5595 14.171 3.57365 14.0968C3.5878 14.0225 3.62272 13.9543 3.674 13.9008C3.72528 13.8472 3.79061 13.8107 3.86174 13.796C3.93287 13.7812 4.00659 13.7888 4.07359 13.8178C4.14059 13.8467 4.19786 13.8958 4.23815 13.9588C4.27844 14.0217 4.29994 14.0957 4.29994 14.1715C4.29982 14.273 4.26115 14.3703 4.19241 14.442C4.12367 14.5138 4.03048 14.5542 3.93327 14.5543Z" fill="#A3C540"/>
</g>
</svg>
