<svg width="16" height="17" viewBox="0 0 16 17" fill="none" xmlns="http://www.w3.org/2000/svg">
<g id="icon / bitcoin (BTC)">
<path id="Vector" d="M15.1139 10.2741C14.1343 14.2027 10.1549 16.5935 6.22543 15.6139C2.29756 14.6344 -0.0935964 10.6552 0.886414 6.72688C1.86551 2.79786 5.84496 0.406751 9.7733 1.38619C13.7025 2.36565 16.0935 6.34531 15.1139 10.2741Z" fill="#F7931A"/>
<path id="Vector_2" d="M5.41424 9.87669C5.37256 9.9762 5.26693 10.1254 5.02881 10.0688C5.03721 10.0805 4.41751 9.92206 4.41751 9.92206L4 10.8477L5.09445 11.1101C5.29806 11.1591 5.49761 11.2105 5.69403 11.2589L5.34597 12.6025L6.18605 12.8041L6.53075 11.4747C6.76024 11.5345 6.983 11.5898 7.20099 11.6419L6.85747 12.9651L7.69852 13.1666L8.04658 11.8254C9.48073 12.0864 10.5591 11.9811 11.0131 10.7339C11.3789 9.72975 10.9949 9.15047 10.2403 8.77275C10.7898 8.65091 11.2037 8.30336 11.3142 7.58545C11.4668 6.60474 10.6901 6.07754 9.62826 5.72583L9.97272 4.39733L9.13167 4.1958L8.79633 5.48928C8.57523 5.43631 8.34813 5.38632 8.1225 5.3368L8.46025 4.03478L7.61969 3.83325L7.27499 5.16128C7.09197 5.12121 6.91233 5.08157 6.73793 5.0399L6.73888 5.03574L5.57901 4.75729L5.35526 5.62099C5.35526 5.62099 5.97928 5.7585 5.96611 5.76701C6.30674 5.84878 6.3683 6.0655 6.35801 6.23734L5.41424 9.87669ZM9.39256 10.1763C9.13266 11.1805 7.37418 10.6376 6.80406 10.5015L7.26591 8.7214C7.83601 8.8582 9.66419 9.12905 9.39256 10.1763ZM9.6527 7.57095C9.41555 8.48441 7.95194 8.02031 7.47717 7.90653L7.8959 6.29197C8.37067 6.40575 9.89967 6.6181 9.6527 7.57095Z" fill="white"/>
</g>
</svg>
