<svg width="20" height="20" viewBox="0 0 20 20" fill="none" xmlns="http://www.w3.org/2000/svg">
<g id="icon / coin" clip-path="url(#clip0_383_4327)">
<g id="Group">
<path id="Vector" d="M10 19.1667C15.0627 19.1667 19.1667 15.0627 19.1667 10C19.1667 4.93743 15.0627 0.833374 10 0.833374C4.93743 0.833374 0.833374 4.93743 0.833374 10C0.833374 15.0627 4.93743 19.1667 10 19.1667Z" stroke="#6AB67C" stroke-width="1.5" stroke-linecap="round" stroke-linejoin="round"/>
<path id="Vector_2" d="M10 15C12.7614 15 15 12.7614 15 10C15 7.23858 12.7614 5 10 5C7.23858 5 5 7.23858 5 10C5 12.7614 7.23858 15 10 15Z" stroke="#6AB67C" stroke-width="1.5" stroke-linecap="round" stroke-linejoin="round"/>
<path id="Vector_3" d="M6.4917 1.53088L8.0867 5.38088" stroke="#6AB67C" stroke-width="1.5" stroke-linecap="round" stroke-linejoin="round"/>
<path id="Vector_4" d="M1.53088 6.4917L5.38088 8.0867" stroke="#6AB67C" stroke-width="1.5" stroke-linecap="round" stroke-linejoin="round"/>
<path id="Vector_5" d="M1.53088 13.5083L5.38088 11.9133" stroke="#6AB67C" stroke-width="1.5" stroke-linecap="round" stroke-linejoin="round"/>
<path id="Vector_6" d="M6.4917 18.4693L8.0867 14.6193" stroke="#6AB67C" stroke-width="1.5" stroke-linecap="round" stroke-linejoin="round"/>
<path id="Vector_7" d="M13.5083 18.4693L11.9133 14.6193" stroke="#6AB67C" stroke-width="1.5" stroke-linecap="round" stroke-linejoin="round"/>
<path id="Vector_8" d="M18.4693 13.5083L14.6193 11.9133" stroke="#6AB67C" stroke-width="1.5" stroke-linecap="round" stroke-linejoin="round"/>
<path id="Vector_9" d="M18.4693 6.4917L14.6193 8.0867" stroke="#6AB67C" stroke-width="1.5" stroke-linecap="round" stroke-linejoin="round"/>
<path id="Vector_10" d="M13.5083 1.53088L11.9133 5.38088" stroke="#6AB67C" stroke-width="1.5" stroke-linecap="round" stroke-linejoin="round"/>
<path id="Vector_11" d="M9.7067 12.365L7.89503 10.25C7.83584 10.1802 7.80334 10.0916 7.80334 10C7.80334 9.90844 7.83584 9.81985 7.89503 9.75L9.7067 7.63667C9.74292 7.59484 9.78771 7.5613 9.83804 7.53831C9.88836 7.51532 9.94304 7.50342 9.99837 7.50342C10.0537 7.50342 10.1084 7.51532 10.1587 7.53831C10.209 7.5613 10.2538 7.59484 10.29 7.63667L12.105 9.75C12.1642 9.81985 12.1967 9.90844 12.1967 10C12.1967 10.0916 12.1642 10.1802 12.105 10.25L10.2934 12.3633C10.2573 12.4058 10.2124 12.44 10.1618 12.4635C10.1112 12.487 10.0562 12.4992 10.0004 12.4994C9.94466 12.4995 9.88953 12.4876 9.83883 12.4644C9.78812 12.4412 9.74304 12.4073 9.7067 12.365Z" fill="#6AB67C"/>
</g>
</g>
<defs>
<clipPath id="clip0_383_4327">
<rect width="20" height="20" fill="white"/>
</clipPath>
</defs>
</svg>
