<svg width="14" height="14" viewBox="0 0 14 14" fill="none" xmlns="http://www.w3.org/2000/svg">
<path d="M4.99996 13H4.66663C4.11463 13 3.66663 12.552 3.66663 12V10.3333" stroke="#B0B4C6" stroke-width="1.5" stroke-linecap="round" stroke-linejoin="round"/>
<path d="M8.99996 13H7.66663" stroke="#B0B4C6" stroke-width="1.5" stroke-linecap="round" stroke-linejoin="round"/>
<path d="M13 11.6667V12C13 12.552 12.552 13 12 13H11.6666" stroke="#B0B4C6" stroke-width="1.5" stroke-linecap="round" stroke-linejoin="round"/>
<path d="M13 7.66669V9.00002" stroke="#B0B4C6" stroke-width="1.5" stroke-linecap="round" stroke-linejoin="round"/>
<path d="M10.3334 3.66669H12C12.552 3.66669 13 4.11469 13 4.66669V5.00002" stroke="#B0B4C6" stroke-width="1.5" stroke-linecap="round" stroke-linejoin="round"/>
<path d="M9.33333 1H2C1.44772 1 1 1.44772 1 2V9.33333C1 9.88562 1.44772 10.3333 2 10.3333H9.33333C9.88562 10.3333 10.3333 9.88562 10.3333 9.33333V2C10.3333 1.44772 9.88562 1 9.33333 1Z" stroke="#B0B4C6" stroke-width="1.5" stroke-linecap="round" stroke-linejoin="round"/>
</svg>
