<svg width="20" height="20" viewBox="0 0 20 20" fill="none" xmlns="http://www.w3.org/2000/svg">
<g id="icon / copy">
<g id="Group">
<path id="Vector" d="M7.49998 17.5H7.08331C6.39331 17.5 5.83331 16.94 5.83331 16.25V14.1666" stroke="#6AB67C" stroke-width="1.5" stroke-linecap="round" stroke-linejoin="round"/>
<path id="Vector_2" d="M12.5 17.5H10.8333" stroke="#6AB67C" stroke-width="1.5" stroke-linecap="round" stroke-linejoin="round"/>
<path id="Vector_3" d="M17.5 15.8334V16.25C17.5 16.94 16.94 17.5 16.25 17.5H15.8333" stroke="#6AB67C" stroke-width="1.5" stroke-linecap="round" stroke-linejoin="round"/>
<path id="Vector_4" d="M17.5 10.8334V12.5" stroke="#6AB67C" stroke-width="1.5" stroke-linecap="round" stroke-linejoin="round"/>
<path id="Vector_5" d="M14.1667 5.83337H16.25C16.94 5.83337 17.5 6.39337 17.5 7.08337V7.50004" stroke="#6AB67C" stroke-width="1.5" stroke-linecap="round" stroke-linejoin="round"/>
<path id="Vector_6" d="M12.9167 2.5H3.75C3.05964 2.5 2.5 3.05964 2.5 3.75V12.9167C2.5 13.607 3.05964 14.1667 3.75 14.1667H12.9167C13.607 14.1667 14.1667 13.607 14.1667 12.9167V3.75C14.1667 3.05964 13.607 2.5 12.9167 2.5Z" stroke="#6AB67C" stroke-width="1.5" stroke-linecap="round" stroke-linejoin="round"/>
</g>
</g>
</svg>
