<svg width="24" height="24" viewBox="0 0 24 24" fill="none" xmlns="http://www.w3.org/2000/svg">
<g id="dashboard 1">
<g id="Group">
<path id="Vector" d="M18 5C18.5523 5 19 5.44772 19 6C19 6.55228 18.5523 7 18 7H16C15.4477 7 15 6.55228 15 6C15 5.44772 15.4477 5 16 5H18ZM8 5C8.55228 5 9 5.44772 9 6V10C9 10.5523 8.55228 11 8 11H6C5.44772 11 5 10.5523 5 10V6C5 5.44772 5.44772 5 6 5H8ZM18 13C18.5523 13 19 13.4477 19 14V18C19 18.5523 18.5523 19 18 19H16C15.4477 19 15 18.5523 15 18V14C15 13.4477 15.4477 13 16 13H18ZM8 17C8.55228 17 9 17.4477 9 18C9 18.5523 8.55228 19 8 19H6C5.44772 19 5 18.5523 5 18C5 17.4477 5.44772 17 6 17H8ZM21 4C21 3.44772 20.5523 3 20 3H14C13.4477 3 13 3.44772 13 4V8C13 8.55228 13.4477 9 14 9H20C20.5523 9 21 8.55228 21 8V4ZM11 4C11 3.44772 10.5523 3 10 3H4C3.44772 3 3 3.44772 3 4V12C3 12.5523 3.44772 13 4 13H10C10.5523 13 11 12.5523 11 12V4ZM21 12C21 11.4477 20.5523 11 20 11H14C13.4477 11 13 11.4477 13 12V20C13 20.5523 13.4477 21 14 21H20C20.5523 21 21 20.5523 21 20V12ZM11 16C11 15.4477 10.5523 15 10 15H4C3.44772 15 3 15.4477 3 16V20C3 20.5523 3.44772 21 4 21H10C10.5523 21 11 20.5523 11 20V16Z" fill="#6AB67C"/>
</g>
</g>
</svg>
