<svg width="16" height="17" viewBox="0 0 16 17" fill="none" xmlns="http://www.w3.org/2000/svg">
<g id="i">
<path id="Vector" d="M12.4453 8.20493V8.79746V9.39053V9.98093H13.0384V9.39053V8.79746V8.20493V7.61187V7.0188H12.4453V7.61187V8.20493Z" fill="#E77560"/>
<path id="Vector_2" d="M12.2417 11.1668H12.4454V9.9812H12.2417V11.1668Z" fill="#E77560"/>
<path id="Vector_3" d="M11.8633 6.05987V6.79587H12.2414V7.01934H12.4451V5.83374H11.8521V6.06041H11.8627L11.8633 6.05987Z" fill="#E77560"/>
<path id="Vector_4" d="M11.5098 5.8333H11.8527V5.24023H11.5098V5.8333Z" fill="#E77560"/>
<path id="Vector_5" d="M10.5581 12.8242V12.9453H10.6669V12.8242H10.5581Z" fill="#E77560"/>
<path id="Vector_6" d="M6.51904 13.5384H7.11211H7.70517H8.2977H8.8881H9.48117V13.387H6.51904V13.5384Z" fill="#E77560"/>
<path id="Vector_7" d="M6.6054 3.77956V4.05742H9.37126V3.81102H9.48112V3.46436H6.51953V3.77956H6.6054Z" fill="#E77560"/>
<path id="Vector_8" d="M5.33325 12.9331V12.9454H6.15085V12.9331H5.33325Z" fill="#E77560"/>
<path id="Vector_9" d="M4.74663 4.65039H4.74023V5.24079H4.74663V4.65039Z" fill="#E77560"/>
<path id="Vector_10" d="M4.35037 5.3293H4.74024V5.24023H4.14771V5.6941H4.35037V5.3293Z" fill="#E77560"/>
<path id="Vector_11" d="M3.97715 10.1007H3.56435V9.9812H3.55688V11.1668H3.97662V10.1007H3.97715Z" fill="#E77560"/>
<path id="Vector_12" d="M3.55737 7.01885H3.56484V6.80445H3.97124V5.83325H3.55791V7.01885H3.55737Z" fill="#E77560"/>
<path id="Vector_13" d="M3.55742 8.79746V8.20493V7.61187V7.0188H2.96436V7.61187V8.20493V8.79746V9.39053V9.98093H3.55742V9.39053V8.79746Z" fill="#E77560"/>
<path id="Vector_14" d="M14.8143 10.5735H14.2212V11.1666V11.7596H14.8143V11.1666V10.5735Z" fill="#FFE3B8"/>
<path id="Vector_15" d="M15.4068 9.39063V8.79757V8.20503V7.61197V7.0189V6.42637H14.8143V5.8333V5.24023H14.2212V5.8333V6.42637V7.0189H14.8143V7.61197V8.20503V8.79757V9.39063V9.98103V10.5736H15.4068V9.98103V9.39063Z" fill="#FFE3B8"/>
<path id="Vector_16" d="M14.2213 11.7598H13.6309V12.3523V12.9454H14.2213V12.3523V11.7598Z" fill="#FFE3B8"/>
<path id="Vector_17" d="M13.6309 4.65044V5.24031H14.2213V4.65044V4.05737H13.6309V4.65044Z" fill="#FFE3B8"/>
<path id="Vector_18" d="M13.6316 12.9453H13.0386V13.5384H13.6316V12.9453Z" fill="#FFE3B8"/>
<path id="Vector_19" d="M13.6316 3.46436H13.0386V4.05742H13.6316V3.46436Z" fill="#FFE3B8"/>
<path id="Vector_20" d="M13.0384 13.5383H12.4453V14.1314H13.0384V13.5383Z" fill="#FFE3B8"/>
<path id="Vector_21" d="M13.0384 2.87183H12.4453V3.46489H13.0384V2.87183Z" fill="#FFE3B8"/>
<path id="Vector_22" d="M11.2598 2.27856V2.87163H11.8523H12.4454V2.27856H11.8523H11.2598Z" fill="#FFE3B8"/>
<path id="Vector_23" d="M11.8523 14.1309H11.2598V14.7239H11.8523H12.4454V14.1309H11.8523Z" fill="#FFE3B8"/>
<path id="Vector_24" d="M10.0737 1.68555V2.27861H10.6668H11.2599V1.68555H10.6668H10.0737Z" fill="#FFE3B8"/>
<path id="Vector_25" d="M10.6668 14.7239H10.0737V15.3143H10.6668H11.2599V14.7239H10.6668Z" fill="#FFE3B8"/>
<path id="Vector_26" d="M9.48092 15.3145H8.88786H8.29746H7.70493H7.11187H6.5188H5.92627V15.907H6.5188H7.11187H7.70493H8.29746H8.88786H9.48092H10.0735V15.3145H9.48092Z" fill="#FFE3B8"/>
<path id="Vector_27" d="M8.88776 1.68555H8.29736V2.27861H8.88776V1.68555Z" fill="#FFE3B8"/>
<path id="Vector_28" d="M8.29778 4.05737H6.60498V4.22217H9.37084V4.05737H8.29724H8.29778Z" fill="#FFE3B8"/>
<path id="Vector_29" d="M7.11211 1.68555H6.51904V2.27861H7.11211V1.68555Z" fill="#FFE3B8"/>
<path id="Vector_30" d="M6.51933 2.27856H5.92627V2.87163H6.51933V2.27856Z" fill="#FFE3B8"/>
<path id="Vector_31" d="M5.92636 15.3143V14.7239H5.3333H4.74023V15.3143H5.3333H5.92636Z" fill="#FFE3B8"/>
<path id="Vector_32" d="M4.74663 5.3293V5.24023H4.74023V5.3293H4.74663Z" fill="#FFE3B8"/>
<path id="Vector_33" d="M4.74028 4.05747H4.74668V3.07614H4.97281V3.07454H5.91521V3.41747H5.92588V2.87134H4.74028V3.4644H4.14722V4.05747H4.74028Z" fill="#FFE3B8"/>
<path id="Vector_34" d="M4.7403 14.7239V14.1309H4.14777H3.55737V14.7239H4.14777H4.7403Z" fill="#FFE3B8"/>
<path id="Vector_35" d="M3.56484 7.0188H3.55737V9.9804H3.56484V7.0188Z" fill="#FFE3B8"/>
<path id="Vector_36" d="M4.14777 4.05737H3.55737V4.65044H4.14777V4.05737Z" fill="#FFE3B8"/>
<path id="Vector_37" d="M2.37183 6.42639H2.96436V5.83332H3.55742V5.24026V4.65039H2.96436V5.24026H2.37183V5.83332V6.42639Z" fill="#FFE3B8"/>
<path id="Vector_38" d="M2.37163 6.42651H1.77856V7.01958H2.37163V6.42651Z" fill="#FFE3B8"/>
<path id="Vector_39" d="M1.77861 7.0188H1.18555V7.61187H1.77861V7.0188Z" fill="#FFE3B8"/>
<path id="Vector_40" d="M14.8143 9.9812H14.2212V10.5743H14.8143V9.9812Z" fill="#F7B279"/>
<path id="Vector_41" d="M13.631 7.61191V8.20498H13.0379V9.98098H12.4448V11.1666H13.0379V10.5735H13.631V9.98044H14.2214V9.39004H14.8144V7.01831H14.2214V7.61138H13.631V7.61191ZM12.9382 11.0844H12.9355V10.9468H12.9382V11.0844Z" fill="#F7B279"/>
<path id="Vector_42" d="M13.6311 11.1666H13.0385V11.7596H12.4455V12.3522H11.8524V12.9452H11.2599V13.5383H10.6668V14.1308H10.0737V14.7239H10.6668H11.2599V14.1308H11.8524H12.4455V13.5383H13.0385V12.9452H13.6311V12.3522V11.7596H14.2214V11.1666V10.5735H13.6311V11.1666Z" fill="#F7B279"/>
<path id="Vector_43" d="M13.6307 4.65044V4.05737H13.0382H12.4451V4.65044H11.8521V5.24031V5.83337H12.4451V6.42644V7.01897H13.0382V7.61204H13.6307V7.01897H14.2211V6.42644V5.83337V5.24031H13.6307V4.65044Z" fill="#F7B279"/>
<path id="Vector_44" d="M12.2415 11.4159H11.8735V11.7593H12.4453V11.1663H12.2415V11.4153V11.4159Z" fill="#F7B279"/>
<path id="Vector_45" d="M12.2417 9.39062V9.98102H12.4454V9.39062H12.2417Z" fill="#F7B279"/>
<path id="Vector_46" d="M11.6582 11.9363V12.2669H11.2944V12.3523H11.8528V11.9363H11.6587H11.6582Z" fill="#F7B279"/>
<path id="Vector_47" d="M10.9198 12.493V12.8236H10.6665V12.9447H11.2596V12.4924H10.9204L10.9198 12.493Z" fill="#F7B279"/>
<path id="Vector_48" d="M10.074 14.7239H9.48096V15.3143H10.074V14.7239Z" fill="#F7B279"/>
<path id="Vector_49" d="M9.48112 14.724V14.131H10.0742V13.5379H10.6673V12.9448H10.5585V13.0339H9.76325V13.1614H9.53712V13.1603H9.48166H9.53446V13.3864H9.48166V13.5379H7.70566V14.131H7.1126V14.724H6.51953V15.3144H8.88859V14.724H9.48166H9.48112Z" fill="#F7B279"/>
<path id="Vector_50" d="M7.59229 5.90431L7.59352 5.90308L7.59229 5.90431Z" fill="#F7B279"/>
<path id="Vector_51" d="M6.39795 8.04248L7.11208 8.04355V8.04248H6.39795Z" fill="#F7B279"/>
<path id="Vector_52" d="M6.39555 5.30591H6.39502V5.53524H6.41849H6.39555V5.30591Z" fill="#F7B279"/>
<path id="Vector_53" d="M6.51901 14.1309H7.11207V13.5378H6.51901V13.3864H6.37714V13.3544H6.37128V13.1581H6.15101V12.9453H5.33341V12.933H5.31208V12.7069H4.95848V12.5064L4.57982 12.525V12.3528H4.14728V12.9458H3.55688V14.1314H4.73981V14.7245H6.51848V14.1314L6.51901 14.1309Z" fill="#F7B279"/>
<path id="Vector_54" d="M6.51904 2.87168V3.46475H9.48063V3.81141H9.70197V3.41995H10.0225V3.02315H11.1398V3.43755H11.51V3.46475H11.8529V2.87168H11.2598V2.27861H10.0742V1.68555H8.88864V2.27861H8.29824V1.68555H7.70517V2.27861H7.11211V2.87168H6.51904Z" fill="#F7B279"/>
<path id="Vector_55" d="M10.9137 3.29251V3.24878H10.8086V3.29251H10.9137Z" fill="#F7B279"/>
<path id="Vector_56" d="M11.5098 6.05992H11.8527V5.83325H11.5098V6.05992Z" fill="#F7B279"/>
<path id="Vector_57" d="M12.2417 8.79746H12.4454V7.0188H12.2417V8.79746Z" fill="#F7B279"/>
<path id="Vector_58" d="M6.25146 3.77956H6.51973V3.46436H6.25146V3.77956Z" fill="#F7B279"/>
<path id="Vector_59" d="M6.51933 1.68555H5.92627V2.27861H6.51933V1.68555Z" fill="#F7B279"/>
<path id="Vector_60" d="M5.92636 2.87163V2.27856H5.3333H4.74023V2.87163H5.3333H5.92636Z" fill="#F7B279"/>
<path id="Vector_61" d="M4.74077 4.05737H4.14771V4.65044H4.74077V4.05737Z" fill="#F7B279"/>
<path id="Vector_62" d="M4.74077 2.87183H4.14771V3.46489H4.74077V2.87183Z" fill="#F7B279"/>
<path id="Vector_63" d="M4.14777 4.65039H3.55737V5.24079H4.14777V4.65039Z" fill="#F7B279"/>
<path id="Vector_64" d="M4.14777 3.46436H3.55737V4.05742H4.14777V3.46436Z" fill="#F7B279"/>
<path id="Vector_65" d="M2.96421 11.7596H3.55727V11.1665V10.5735V9.98093H2.96421V9.39053V8.79746V8.20493V7.61187V7.0188H2.37168V7.61187H1.77861V8.20493H1.18555V8.79746V9.39053V9.98093V10.5735H1.77861V11.1665V11.7596H2.37168V12.3521H2.96421V11.7596Z" fill="#F7B279"/>
<path id="Vector_66" d="M3.55742 6.42651H2.96436V7.01958H3.55742V6.42651Z" fill="#F7B279"/>
<path id="Vector_67" d="M3.55742 4.05737H2.96436V4.65044H3.55742V4.05737Z" fill="#F7B279"/>
<path id="Vector_68" d="M2.96489 4.65039H2.37183V5.24079H2.96489V4.65039Z" fill="#F7B279"/>
<path id="Vector_69" d="M2.37163 5.8333V5.24023H1.77856V5.8333V6.42637H2.37163V5.8333Z" fill="#F7B279"/>
<path id="Vector_70" d="M1.77861 6.42651H1.18555V7.01958H1.77861V6.42651Z" fill="#F7B279"/>
<path id="Vector_71" d="M14.2213 7.0188H13.6309V7.61187H14.2213V7.0188Z" fill="#FCFADD"/>
<path id="Vector_72" d="M13.6316 7.61206H13.0386V8.20513H13.6316V7.61206Z" fill="#FCFADD"/>
<path id="Vector_73" d="M12.4454 9.39067V8.79761H12.2417V9.39067H12.4454Z" fill="#FCFADD"/>
<path id="Vector_74" d="M11.5098 3.46421V5.2402H11.8527V4.6498H12.4458V4.05674H13.0388V3.46367H12.4458V2.87061H11.8527V3.46367H11.5098V3.46421Z" fill="#FCFADD"/>
<path id="Vector_75" d="M7.45741 8.04248H7.11182V8.04355L7.44515 8.04408H7.45741V8.04248Z" fill="#FCFADD"/>
<path id="Vector_76" d="M6.40634 9.86426L6.40527 9.86586V9.88559V9.86586L6.40634 9.86426Z" fill="#FCFADD"/>
<path id="Vector_77" d="M15.4067 6.42651V7.01905V7.61211V8.20518V8.79771V9.39078V9.98118V10.5737H15.9998V9.98118V9.39078V8.79771V8.20518V7.61211V7.01905V6.42651H15.4067Z" fill="#483E62"/>
<path id="Vector_78" d="M14.8145 11.1666V11.7596H15.407V11.1666V10.5735H14.8145V11.1666Z" fill="#483E62"/>
<path id="Vector_79" d="M14.8145 6.42637H15.407V5.8333V5.24023H14.8145V5.8333V6.42637Z" fill="#483E62"/>
<path id="Vector_80" d="M14.2212 12.3523V12.9454H14.8143V12.3523V11.7598H14.2212V12.3523Z" fill="#483E62"/>
<path id="Vector_81" d="M14.2212 5.24031H14.8143V4.65044V4.05737H14.2212V4.65044V5.24031Z" fill="#483E62"/>
<path id="Vector_82" d="M14.2213 12.9453H13.6309V13.5384H14.2213V12.9453Z" fill="#483E62"/>
<path id="Vector_83" d="M14.2213 3.46436H13.6309V4.05742H14.2213V3.46436Z" fill="#483E62"/>
<path id="Vector_84" d="M13.6316 13.5383H13.0386V14.1314H13.6316V13.5383Z" fill="#483E62"/>
<path id="Vector_85" d="M13.6316 2.87183H13.0386V3.46489H13.6316V2.87183Z" fill="#483E62"/>
<path id="Vector_86" d="M13.0384 14.1309H12.4453V14.7239H13.0384V14.1309Z" fill="#483E62"/>
<path id="Vector_87" d="M13.0384 2.27856H12.4453V2.87163H13.0384V2.27856Z" fill="#483E62"/>
<path id="Vector_88" d="M11.2598 14.7239V15.3143H11.8523H12.4454V14.7239H11.8523H11.2598Z" fill="#483E62"/>
<path id="Vector_89" d="M11.8523 2.27861H12.4454V1.68555H11.8523H11.2598V2.27861H11.8523Z" fill="#483E62"/>
<path id="Vector_90" d="M10.0737 15.3145V15.907H10.6668H11.2599V15.3145H10.6668H10.0737Z" fill="#483E62"/>
<path id="Vector_91" d="M10.6668 1.68555H11.2599V1.09302H10.6668H10.0737V1.68555H10.6668Z" fill="#483E62"/>
<path id="Vector_92" d="M8.88786 15.907H8.29746H7.70493H7.11187H6.5188H5.92627V16.5H6.5188H7.11187H7.70493H8.29746H8.88786H9.48092H10.0735V15.907H9.48092H8.88786Z" fill="#483E62"/>
<path id="Vector_93" d="M7.11187 1.09307H7.70493H8.29746H8.88786H9.48092H10.0735V0.5H9.48092H8.88786H8.29746H7.70493H7.11187H6.5188H5.92627V1.09307H6.5188H7.11187Z" fill="#483E62"/>
<path id="Vector_94" d="M5.3333 15.3145H4.74023V15.907H5.3333H5.92636V15.3145H5.3333Z" fill="#483E62"/>
<path id="Vector_95" d="M5.92636 1.68555V1.09302H5.3333H4.74023V1.68555H5.3333H5.92636Z" fill="#483E62"/>
<path id="Vector_96" d="M4.14777 14.7239H3.55737V15.3143H4.14777H4.7403V14.7239H4.14777Z" fill="#483E62"/>
<path id="Vector_97" d="M4.7403 2.27861V1.68555H4.14777H3.55737V2.27861H4.14777H4.7403Z" fill="#483E62"/>
<path id="Vector_98" d="M3.55742 14.1309H2.96436V14.7239H3.55742V14.1309Z" fill="#483E62"/>
<path id="Vector_99" d="M3.55742 2.27856H2.96436V2.87163H3.55742V2.27856Z" fill="#483E62"/>
<path id="Vector_100" d="M2.37183 13.5383V14.1309H2.96436V13.5383H2.37183Z" fill="#483E62"/>
<path id="Vector_101" d="M2.96489 2.87183H2.37183V3.46489H2.96489V2.87183Z" fill="#483E62"/>
<path id="Vector_102" d="M2.37163 12.9453H1.77856V13.5384H2.37163V12.9453Z" fill="#483E62"/>
<path id="Vector_103" d="M2.37163 3.46436H1.77856V4.05742H2.37163V3.46436Z" fill="#483E62"/>
<path id="Vector_104" d="M1.77861 11.7598H1.18555V12.3523V12.9454H1.77861V12.3523V11.7598Z" fill="#483E62"/>
<path id="Vector_105" d="M1.77861 4.65044V4.05737H1.18555V4.65044V5.24031H1.77861V4.65044Z" fill="#483E62"/>
<path id="Vector_106" d="M1.18555 10.5735H0.593018V11.1666V11.7596H1.18555V11.1666V10.5735Z" fill="#483E62"/>
<path id="Vector_107" d="M1.18555 5.8333V5.24023H0.593018V5.8333V6.42637H1.18555V5.8333Z" fill="#483E62"/>
<path id="Vector_108" d="M0.593065 9.39078V8.79771V8.20518V7.61211V7.01905V6.42651H0V7.01905V7.61211V8.20518V8.79771V9.39078V9.98118V10.5737H0.593065V9.98118V9.39078Z" fill="#483E62"/>
<path id="Vector_109" d="M5.13906 4.23486H4.97266V4.95486H5.13906V4.23486Z" fill="#F6B279"/>
<path id="Vector_110" d="M6.03356 7.83374H4.95996V8.02947H6.03356V7.83374Z" fill="#FCFADD"/>
<path id="Vector_111" d="M4.58732 12.4814V12.2559H4.20332V11.9321H4.58732V12.2559H4.96278V10.7444H4.64118V10.8932H4.58732V11.2425H4.95852V11.6052H4.57719V11.2484H4.20279V11.9327H4.18945V12.2623H4.57932V12.5252L4.95798 12.5065V12.4814H4.58679H4.58732Z" fill="#FCFADD"/>
<path id="Vector_112" d="M4.5755 9.56552H4.20004V9.18419H4.58724V8.42473H4.59204V8.05193H4.1947V7.71699H4.59204H4.86403V7.59326H4.96323V7.51219H4.62617V7.15113H4.62297V7.14526H4.61817V6.64819H4.19684V7.03113H4.13017V8.37993H3.7915V9.01459H3.8811V9.29726H4.09817V9.58632H4.35737V9.90899H4.2043V10.3229H4.38084V10.6098H4.5883V9.91699C4.58457 9.91699 4.5803 9.91699 4.57657 9.91699V9.56499L4.5755 9.56552ZM4.2235 8.63486H4.55897V8.94206H4.2235V8.63486Z" fill="#FCFADD"/>
<path id="Vector_113" d="M10.51 4.01531V3.85425H10.582V3.64038H10.2486V3.64571H10.2417V4.01531H10.51Z" fill="#F7B279"/>
<path id="Vector_114" d="M9.88086 4.4152H10.2393V4.01733H9.92779V4.03707H9.88086V4.4152Z" fill="#F7B279"/>
<path id="Vector_115" d="M9.88005 4.65027V4.44653H9.53125V4.77667H9.88005V4.65027Z" fill="#F7B279"/>
<path id="Vector_116" d="M7.59921 7.7085V8.04236H7.59814V8.04396H8.05041V7.7085H7.59921Z" fill="#F7B279"/>
<path id="Vector_117" d="M7.52734 7.44458V7.44582H7.52858L7.52734 7.44458Z" fill="#F7B279"/>
<path id="Vector_118" d="M6.39525 5.30591H5.70459V5.89737H6.03952L6.04006 5.89791V6.22484H6.41872V5.53524H6.39525V5.30591Z" fill="#FCFADD"/>
<path id="Vector_119" d="M8.38816 5.85941V5.32715H7.55189V5.85888H7.19189V6.16608H7.59243V5.90421H7.59189L7.59296 5.90315H8.38496V5.85941H8.38816Z" fill="#FCFADD"/>
<path id="Vector_120" d="M4.37966 11.1806H4.20312V11.2478H4.57752V11.6046H4.95886V11.2419H4.58766V10.8926H4.37966V11.18V11.1806Z" fill="#FBB37A"/>
<path id="Vector_121" d="M6.80309 10.2365H6.79883V10.316H7.50389V10.2317H6.80309V10.2365Z" fill="#FBB37A"/>
<path id="Vector_122" d="M8.42308 13.1607V12.8306H8.42948V12.6476H8.78841V12.5122H9.15961V12.3543H9.54681V11.99H10.2641V11.6258H10.5809V11.245H10.9196V10.2674H11.278V9.91058H11.6332V9.24978H11.2737V8.85778H11.6332V7.68872H11.2641V7.28125H10.9217V8.47592H10.5783V9.20498H9.54414V9.56498H9.11268V9.89352H8.76068V9.54365H8.37081V9.90578H8.02788V10.2316H7.58521L7.50468 10.2322V10.3159H6.79962V10.5586H5.32495V10.2364H4.99536V9.91752C4.81722 9.91752 4.66949 9.91752 4.58789 9.91752V10.6103H4.64229V10.7442H4.96389V12.2556H4.96976V12.4812H5.33082V12.7074H6.37828V13.1586H6.37242V13.3548H6.37828V13.1607H8.42414H8.42308ZM7.19908 11.6338V12.0076H6.79588V12.3538H6.39055V12.0076H5.33829V11.6338H7.19855H7.19908Z" fill="#FFE3B8"/>
<path id="Vector_123" d="M4.58716 9.18427V9.54054H4.96209V9.3432H5.31089V9.2168H4.95996V8.87547H4.82769V8.5272H4.59196V8.4248H4.58716V9.18427Z" fill="#FFE3B8"/>
<path id="Vector_124" d="M6.04573 9.21673H5.67773V9.3426H6.03133V9.53993H6.37853H6.39453V8.87646H6.04573V9.21673Z" fill="#FFE3B8"/>
<path id="Vector_125" d="M11.2925 12.4225H11.2941V12.2673H11.2925V12.4225Z" fill="#E77560"/>
<path id="Vector_126" d="M5.32643 5.55537V4.95483H4.97283V5.55483H4.9563H5.3259L5.32643 5.55537Z" fill="#E77560"/>
<path id="Vector_127" d="M7.17896 6.04624C7.17896 5.9161 7.17896 5.7609 7.17896 5.73104C7.17896 5.63024 7.17896 5.53584 7.17896 5.4633V5.43717C7.17896 5.43077 7.17896 5.42384 7.17896 5.41797H7.01363V5.61477H6.80029V6.23557H7.17843C7.17843 6.18597 7.17843 6.11984 7.17843 6.04624H7.17896Z" fill="#E77560"/>
<path id="Vector_128" d="M8.74961 5.85938H8.38428V6.19377H8.74961V5.85938Z" fill="#E77560"/>
<path id="Vector_129" d="M8.74896 7.50737V7.7079H8.05029V8.04337V8.04497H8.75482V7.50684H8.74896V7.50737Z" fill="#E77560"/>
<path id="Vector_130" d="M5.33862 12.0082H6.39089V12.3543H6.79568V12.0082H7.19888V11.6338H5.33862V12.0082Z" fill="#E77560"/>
<path id="Vector_131" d="M5.65237 4.01953H5.32544V4.8558H5.65237V4.01953Z" fill="#C76657"/>
<path id="Vector_132" d="M8.02767 9.90321H7.58447V10.2312H8.02714V9.90535H8.37007V9.54321H8.02767V9.90268V9.90321Z" fill="#C76657"/>
<path id="Vector_133" d="M6.37842 9.54004H6.40775V9.86431H6.40615L6.40508 9.86591V9.88617H7.57841V9.54057H6.37842V9.54004Z" fill="#C76657"/>
<path id="Vector_134" d="M6.80316 10.2365V10.2317H6.38022V9.91753C6.28369 9.91753 6.09436 9.91699 5.87196 9.91699C5.69223 9.91699 5.49543 9.91699 5.33329 9.91699C5.17116 9.91699 5.04423 9.91699 5.0069 9.91699C5.00263 9.91699 4.9989 9.91699 4.99463 9.91699V10.2359H5.32423V10.5581H6.79889V10.2359H6.80316V10.2365Z" fill="#C76657"/>
<path id="Vector_135" d="M10.8317 5.51171H10.509V4.99811H10.3608V4.83011H10.0941V4.50745H10.3608V4.33945H10.509V4.01465H10.2386V4.41518H9.87918C9.87918 4.41518 9.87918 4.42638 9.87918 4.44611V4.77625H9.51172V5.40078H9.87918V5.57038H10.2386V5.93305H10.5874V5.71865H10.9117V4.99811H10.8317V5.51171Z" fill="#C76657"/>
<path id="Vector_136" d="M10.5815 3.64023V3.8541H10.8317V4.33943H10.9117V3.6189H10.5815C10.5815 3.6189 10.5815 3.6269 10.5815 3.64076V3.64023Z" fill="#C76657"/>
<path id="Vector_137" d="M6.04627 8.87505H5.67773V9.21692H6.04573V8.87665H6.39773V8.53052H6.04627V8.87505Z" fill="#C76657"/>
<path id="Vector_138" d="M5.31094 9.21682V8.87549H4.95947V9.21682H5.31094Z" fill="#C76657"/>
<path id="Vector_139" d="M4.12968 7.03076H3.79102V8.37956H4.12968V7.03076Z" fill="white"/>
<path id="Vector_140" d="M5.32092 3.30054H4.97266V3.50694H5.32092V3.30054Z" fill="white"/>
<path id="Vector_141" d="M4.37966 10.323H4.20312V11.1801H4.37966V10.8926H4.64152V10.6105H4.37966V10.3235V10.323Z" fill="white"/>
<path id="Vector_142" d="M4.35639 9.58638H4.09719V9.29732H3.88013V9.01465H3.79053V9.87438H4.20279V9.90905H4.35586V9.58638H4.35639Z" fill="white"/>
<path id="Vector_143" d="M10.8318 3.85425H10.5092V4.33958H10.3609V4.50758H10.0942V4.83025H10.3609V4.99825H10.5092V5.51185H10.8318V4.99825H10.9801V4.83025H11.227V4.50758H10.9801V4.33958H10.8318V3.85425Z" fill="white"/>
<path id="Vector_144" d="M5.33906 6.58047H5.72305V6.37354H5.12999V6.4962H4.97266V7.12713H5.33959V6.58047H5.33906Z" fill="white"/>
<path id="Vector_145" d="M8.02553 7.43535V6.85509H8.40846V6.57349H7.99513V6.68122H7.7354V6.78042H7.59087L7.59033 6.77989V7.43535H8.02553Z" fill="white"/>
<path id="Vector_146" d="M12.9382 10.947H12.9355V11.0846H12.9382V10.947Z" fill="#F1EDAF"/>
<path id="Vector_147" d="M4.55885 8.63501H4.22339V8.94221H4.55885V8.63501Z" fill="#483E62"/>
<path id="Vector_148" d="M7.16191 8.88818H6.81738V9.25405H7.16191V8.88818Z" fill="#483E62"/>
<path id="Vector_149" d="M7.59431 8.62915H7.25244V8.94222H7.59431V8.62915Z" fill="#483E62"/>
<path id="Vector_150" d="M6.37699 12.933V12.7069H5.32952V12.4807H4.96846V12.2551H4.58712V11.9314H4.20312V12.2551H4.58712V12.4807H4.95832V12.7069H5.31192V12.933H6.15085V13.1581H6.37699V12.933Z" fill="#483E62"/>
<path id="Vector_151" d="M6.37695 13.1609V13.355V13.387H6.51882H9.48094H9.53321V13.2137V13.1609H9.48094H8.42281H6.37695Z" fill="#483E62"/>
<path id="Vector_152" d="M7.59889 7.70855H8.74928V7.50801H8.88528V7.38961H9.12102V6.72188H8.88528V6.48775H8.74235V6.27441H7.73116V6.36348H7.73009V6.57788H7.42449V6.77895H7.24902V7.44561H7.52796V7.44455L7.52902 7.44561H7.52796V7.70801L7.59889 7.70855ZM7.59036 6.78001H7.73489V6.68081H7.99462V6.57255H8.40795V6.85468H8.02502V7.43495H7.58982V6.77948L7.59036 6.78001Z" fill="#483E62"/>
<path id="Vector_153" d="M8.76683 9.18748H8.02176V9.54002H7.57856V9.88562H6.40523V9.86535L6.4063 9.86375H6.4079V9.53948H6.03137V9.34215H5.67777V8.87442H6.0463V8.52988H6.3983V7.59229H4.8639V7.71602H4.5919V8.52668H4.82764V8.87495H5.31137V9.34268H4.96257V9.54002H4.58764V9.18322H4.20044V9.56455H4.57591V9.91655C4.57964 9.91655 4.5839 9.91655 4.58764 9.91655C4.66924 9.91655 4.81644 9.91655 4.9951 9.91655C4.99884 9.91655 5.0031 9.91655 5.00737 9.91655C5.10924 9.91655 5.22017 9.91655 5.33377 9.91655C5.5151 9.91655 5.70337 9.91655 5.87243 9.91655C6.09483 9.91655 6.28417 9.91655 6.3807 9.91708V10.2312H7.58496V9.90268H8.02816V9.54322H8.76736V9.18642L8.76683 9.18748ZM4.9599 8.02962V7.83388H6.0335V8.02962H4.9599Z" fill="#483E62"/>
<path id="Vector_154" d="M4.62551 7.15024H4.87351V7.38437H5.60631V7.16517H5.78338V7.10224H6.05484V6.35291H5.78711V6.07397H5.13058V6.27664H4.82818V6.48357H4.73645V6.72037H4.62231V7.14971H4.62551V7.15024ZM4.97218 6.49584H5.12951V6.37317H5.72258V6.58011H5.33858V7.12677H4.97165V6.49584H4.97218Z" fill="#483E62"/>
<path id="Vector_155" d="M9.53645 12.9208V12.8088H10.5572V12.4936H10.9194V12.2675H11.2922V11.9203H11.6474V11.1901H12.0154V7.0216H11.6372V6.28613H10.9172V6.6104H11.2639V7.6888H11.633V8.85787H11.2735V9.24986H11.633V9.91066H11.2778V10.2675H10.9194V11.2451H10.5807V11.6259H10.2639V11.9901H9.54658V12.3544H9.15938V12.5123H8.78818V12.6477H8.42925V12.8307H8.42285V13.1608H9.53645V12.9208Z" fill="#E77560"/>
<path id="Vector_156" d="M10.6667 12.8244H10.92V12.4974V12.4932H10.5579V12.8084H9.53711V13.162H9.76324V13.0345H10.5584V12.8244H10.6672H10.6667Z" fill="#483E62"/>
<path id="Vector_157" d="M4.74685 5.2403V5.32937H4.35005V5.69417C4.26365 5.69417 4.12872 5.69417 4.04338 5.69417H3.97085V6.80457H3.56445V10.1H3.97725V11.932H4.20338V9.8739H3.79112V7.03017H4.19698V5.91977H4.57618V5.55497H4.94312C4.94685 5.55497 4.95218 5.55497 4.95752 5.55497H4.97405V3.30057H5.69085V3.41737H5.68925V3.6435H6.02631V4.00564H6.38098V4.4483H9.41777V4.4467H9.59857V4.0371H9.92923V3.64564H10.2498V3.24884H10.9154V3.64564H11.285V5.16404H11.286V5.81737H11.285V6.0595H10.5762V6.28564H11.6386V7.0211H12.0167V11.1896H11.6487V11.9198H11.2935V12.267H10.9207V12.4931H11.2935V12.267H11.6588V11.9363H11.8743V11.4158H12.2423V6.7955H11.8642V6.0595H11.5106V3.4371H11.1404V3.02271H10.0231V3.4195H9.70257V3.81097H9.3719V4.22217H6.60604V3.7795H6.25191V3.41737H5.91645V3.07444H4.97405V3.07604H4.74792V5.2403H4.74685Z" fill="#483E62"/>
<path id="Vector_158" d="M10.9108 7.36027H10.5444V7.03174H10.202V7.38854H9.53585V8.05734H9.12519V8.37947H7.44519V8.04507H7.11186L6.39773 8.04347V8.53147V8.8776H6.39453V9.5416H7.57906H8.02226V9.18907H8.76732V9.54587H8.76039V9.89574H9.11239V9.5672H9.54385V9.2072H10.578V8.47814H10.9215V7.6936H10.9108V7.3624V7.36027ZM7.25213 8.6296H7.59399V8.94267H7.25213V8.6296ZM6.81746 8.8888H7.162V9.25467H6.81746V8.8888Z" fill="#FCFADD"/>
<path id="Vector_159" d="M10.5748 6.28558V6.05944H11.2836V5.81731H11.2846V5.16398H11.2836V3.64558H10.914V3.29251H10.8089V3.24878H10.5849V3.61838H10.9118V4.33891H10.9796V4.50691H11.2265V4.82958H10.9796V4.99758H10.9118V5.71811H10.5876V5.93251H10.2388V5.56984H9.87932V5.40024H9.51185V4.77838H6.3012V4.44238H6.37853V4.00451H6.02386V3.64238H5.6868V3.41625H5.6884V3.29945H5.3236V4.23385H5.138V4.95385H5.3252V5.55438H4.9556C4.95027 5.55438 4.94493 5.55438 4.9412 5.55438H4.57427V5.91918H4.19507V6.28771H4.61907V6.64718H4.6164V7.14424H4.6212V6.72078H4.73533V6.48398H4.82707V6.27704H5.12947V6.07438H5.786V6.35331H6.05373V7.01624H6.80733V7.32611H6.80999V7.70798H7.52679V7.44558H7.24786V6.77891H7.42333V6.57784H7.72892V6.36344H7.72999V6.27438H8.74119V6.48771H8.88412V6.72184H9.11985V7.02211H9.53532V7.02424H10.2014V7.03171H10.5438V7.36024H10.9102V7.69144H10.9209V7.28078H11.2633V6.60931H10.9166V6.28504H10.5748V6.28558ZM5.3252 4.85571V4.01945H5.65213V4.85571H5.3252ZM6.41853 5.53464V6.22424H6.03986V5.89784H5.70546V5.30638H6.39613V5.53571H6.41906L6.41853 5.53464ZM6.80093 6.23544V5.61464H7.01426V5.41784H7.17959V5.72558C7.17959 5.72558 7.17959 5.72771 7.17959 5.73091C7.17906 5.76078 7.17959 5.91544 7.17959 6.04611C7.17959 6.14798 7.17959 6.23544 7.17959 6.23544H6.80146H6.80093ZM8.38492 6.19384V5.90318H7.59292L7.59186 5.90424V6.16611H7.19133V5.85891H7.55132V5.32718H8.38759V5.85944H8.74972V6.19384H8.38439H8.38492Z" fill="#F7B279"/>
<path id="Vector_160" d="M4.18975 11.9321H3.97696V11.1667H3.55722V11.7598H2.96416V12.3529H2.37109V13.5385H2.96416V14.1315H3.55722V13.5385V12.9454H4.14762V12.3523H4.58015V12.2617H4.19029V11.9321H4.18975Z" fill="#FFD490"/>
<path id="Vector_161" d="M14.8143 9.39062H14.2212V9.98102H14.8143V9.39062Z" fill="#FFD490"/>
<path id="Vector_162" d="M14.2213 9.9812H13.6309V10.5743H14.2213V9.9812Z" fill="#FFD490"/>
<path id="Vector_163" d="M13.6316 10.5735H13.0386V11.1666H13.6316V10.5735Z" fill="#FFD490"/>
<path id="Vector_164" d="M13.0384 11.1667H12.4453V11.7598H13.0384V11.1667Z" fill="#FFD490"/>
<path id="Vector_165" d="M11.8734 11.9363H11.8521V12.3523H12.4451V11.7598H11.8734V11.9363Z" fill="#FFD490"/>
<path id="Vector_166" d="M11.2944 12.4227H11.2928V12.4931H11.2598V12.9454H11.8528V12.3523H11.2944V12.4227Z" fill="#FFD490"/>
<path id="Vector_167" d="M11.2596 12.9453H10.6665V13.5384H11.2596V12.9453Z" fill="#FFD490"/>
<path id="Vector_168" d="M10.6668 13.5383H10.0737V14.1314H10.6668V13.5383Z" fill="#FFD490"/>
<path id="Vector_169" d="M10.074 14.1309H9.48096V14.7239H10.074V14.1309Z" fill="#FFD490"/>
<path id="Vector_170" d="M9.48125 14.7239H8.88818V15.3143H9.48125V14.7239Z" fill="#FFD490"/>
<path id="Vector_171" d="M7.70488 13.5383H7.11182V14.1314H7.70488V13.5383Z" fill="#FFD490"/>
<path id="Vector_172" d="M7.11211 14.1309H6.51904V14.7239H7.11211V14.1309Z" fill="#FFD490"/>
<path id="Vector_173" d="M7.11211 2.27856H6.51904V2.87163H7.11211V2.27856Z" fill="#FFD490"/>
<path id="Vector_174" d="M7.11187 1.68555V2.27862H7.70493V1.68555H8.29746H8.88786H9.48092H10.0735V1.09302H9.48092H8.88786H8.29746H7.70493H7.11187H6.5188H5.92627V1.68555H6.5188H7.11187Z" fill="#FFD490"/>
<path id="Vector_175" d="M6.51933 14.7239H5.92627V15.3143H6.51933V14.7239Z" fill="#FFD490"/>
<path id="Vector_176" d="M5.92627 3.41747H6.25107V3.4644H6.51933V2.87134H5.92627V3.41747Z" fill="#FFD490"/>
<path id="Vector_177" d="M5.92636 2.27861V1.68555H5.3333H4.74023V2.27861H5.3333H5.92636Z" fill="#FFD490"/>
<path id="Vector_178" d="M4.74663 4.05737H4.74023V4.65044H4.74663V4.05737Z" fill="#FFD490"/>
<path id="Vector_179" d="M4.74077 4.65039H4.14771V5.24079H4.74077V4.65039Z" fill="#FFD490"/>
<path id="Vector_180" d="M3.97075 5.6941H4.04328H4.14728V5.24023H3.55688V5.8333H3.97022V5.6941H3.97075Z" fill="#FFD490"/>
<path id="Vector_181" d="M3.55742 5.83325H2.96436V6.42632H3.55742V5.83325Z" fill="#FFD490"/>
<path id="Vector_182" d="M2.96489 6.42651H2.37183V7.01958H2.96489V6.42651Z" fill="#FFD490"/>
<path id="Vector_183" d="M1.77856 12.9454H2.37163V12.3523V11.7598H1.77856V12.3523V12.9454Z" fill="#FFD490"/>
<path id="Vector_184" d="M2.37163 7.0188H1.77856V7.61187H2.37163V7.0188Z" fill="#FFD490"/>
<path id="Vector_185" d="M2.37163 4.6503H2.96416V4.05723H3.55723V3.46416H4.14762V2.87163H4.74016V2.27856H4.14762H3.55723V2.87163H2.96416V3.46416H2.37163V4.05723H1.77856V4.6503V5.24016H2.37163V4.6503Z" fill="#FFD490"/>
<path id="Vector_186" d="M1.18555 11.7596H1.77861V11.1666V10.5735H1.18555V11.1666V11.7596Z" fill="#FFD490"/>
<path id="Vector_187" d="M1.77861 5.8333V5.24023H1.18555V5.8333V6.42637H1.77861V5.8333Z" fill="#FFD490"/>
<path id="Vector_188" d="M1.18555 7.01905V6.42651H0.593018V7.01905V7.61211V8.20518V8.79771V9.39078V9.98118V10.5737H1.18555V9.98118V9.39078V8.79771V8.20518H1.77861V7.61211H1.18555V7.01905Z" fill="#FFD490"/>
<path id="Vector_189" d="M6.30225 4.44346V4.77946H9.5129V4.7768H9.53157V4.44666H9.88037C9.88037 4.42693 9.88037 4.41466 9.88037 4.41573H9.88143V4.0376H9.5977V4.4472H9.4169V4.4488H6.38011V4.444H6.30278L6.30225 4.44346Z" fill="#FFD490"/>
<path id="Vector_190" d="M9.92773 3.64555V4.01729H10.2392V4.01462H10.2413V3.64502H9.92773V3.64555Z" fill="#FFD490"/>
<path id="Vector_191" d="M10.5819 3.64025C10.5819 3.62691 10.5819 3.61838 10.5819 3.61838H10.5851V3.24878H10.2485V3.64025H10.5819Z" fill="#FFD490"/>
<path id="Vector_192" d="M4.19458 8.05197H4.59191V7.71704H4.19458V8.05197Z" fill="#FFD490"/>
<path id="Vector_193" d="M4.19629 6.6478H4.62029V6.28833H4.19629V6.6478Z" fill="#FFD490"/>
<path id="Vector_194" d="M6.39779 7.5924V8.04254H7.45752V8.04414H7.44526V8.37854H9.12525V8.0564H9.53592V7.3876H10.202V7.02334H9.53592V7.0212H9.12045V7.38867H8.88472V7.50707H8.75459V8.0452H8.05006V8.0436H7.59726V8.042H7.59832V7.70814H7.52739L6.81059 7.7076V7.32574H6.80793V7.01587H6.05433V7.10227H5.78286V7.1652H5.6058V7.3844H4.873V7.15027H4.625V7.51134H4.96207V7.5924H6.39726H6.39779Z" fill="#FFD490"/>
<path id="Vector_195" d="M4.97266 3.50698V4.23445H5.32466V3.30005H5.32092V3.50645H4.97266V3.50698Z" fill="#FFD490"/>
</g>
</svg>
