<svg width="16" height="16" viewBox="0 0 16 16" fill="none" xmlns="http://www.w3.org/2000/svg">
<g id="circle-dotted-user 1" clip-path="url(#clip0_211_150)">
<g id="Group">
<path id="Vector" d="M8.00004 2.00002C8.36824 2.00002 8.66671 1.70154 8.66671 1.33335C8.66671 0.965167 8.36824 0.666687 8.00004 0.666687C7.63184 0.666687 7.33337 0.965167 7.33337 1.33335C7.33337 1.70154 7.63184 2.00002 8.00004 2.00002Z" fill="#6AB67C"/>
<path id="Vector_2" d="M5.28874 2.57668C5.65693 2.57668 5.9554 2.2782 5.9554 1.91001C5.9554 1.54182 5.65693 1.24335 5.28874 1.24335C4.92055 1.24335 4.62207 1.54182 4.62207 1.91001C4.62207 2.2782 4.92055 2.57668 5.28874 2.57668Z" fill="#6AB67C"/>
<path id="Vector_3" d="M3.04606 4.20601C3.41425 4.20601 3.71273 3.90753 3.71273 3.53935C3.71273 3.17116 3.41425 2.87268 3.04606 2.87268C2.67787 2.87268 2.37939 3.17116 2.37939 3.53935C2.37939 3.90753 2.67787 4.20601 3.04606 4.20601Z" fill="#6AB67C"/>
<path id="Vector_4" d="M1.65934 6.60671C2.02754 6.60671 2.32601 6.30823 2.32601 5.94004C2.32601 5.57186 2.02754 5.27338 1.65934 5.27338C1.29116 5.27338 0.992676 5.57186 0.992676 5.94004C0.992676 6.30823 1.29116 6.60671 1.65934 6.60671Z" fill="#6AB67C"/>
<path id="Vector_5" d="M1.37004 9.36336C1.73823 9.36336 2.0367 9.0649 2.0367 8.6967C2.0367 8.3285 1.73823 8.03003 1.37004 8.03003C1.00185 8.03003 0.703369 8.3285 0.703369 8.6967C0.703369 9.0649 1.00185 9.36336 1.37004 9.36336Z" fill="#6AB67C"/>
<path id="Vector_6" d="M2.22673 12C2.59491 12 2.89339 11.7016 2.89339 11.3334C2.89339 10.9652 2.59491 10.6667 2.22673 10.6667C1.85853 10.6667 1.56006 10.9652 1.56006 11.3334C1.56006 11.7016 1.85853 12 2.22673 12Z" fill="#6AB67C"/>
<path id="Vector_7" d="M13.7734 12C14.1416 12 14.44 11.7016 14.44 11.3334C14.44 10.9652 14.1416 10.6667 13.7734 10.6667C13.4052 10.6667 13.1067 10.9652 13.1067 11.3334C13.1067 11.7016 13.4052 12 13.7734 12Z" fill="#6AB67C"/>
<path id="Vector_8" d="M14.63 9.36336C14.9982 9.36336 15.2967 9.0649 15.2967 8.6967C15.2967 8.3285 14.9982 8.03003 14.63 8.03003C14.2618 8.03003 13.9634 8.3285 13.9634 8.6967C13.9634 9.0649 14.2618 9.36336 14.63 9.36336Z" fill="#6AB67C"/>
<path id="Vector_9" d="M14.3407 6.60671C14.7089 6.60671 15.0074 6.30823 15.0074 5.94004C15.0074 5.57186 14.7089 5.27338 14.3407 5.27338C13.9725 5.27338 13.6741 5.57186 13.6741 5.94004C13.6741 6.30823 13.9725 6.60671 14.3407 6.60671Z" fill="#6AB67C"/>
<path id="Vector_10" d="M12.954 4.20601C13.3222 4.20601 13.6207 3.90753 13.6207 3.53935C13.6207 3.17116 13.3222 2.87268 12.954 2.87268C12.5858 2.87268 12.2874 3.17116 12.2874 3.53935C12.2874 3.90753 12.5858 4.20601 12.954 4.20601Z" fill="#6AB67C"/>
<path id="Vector_11" d="M10.7113 2.57668C11.0795 2.57668 11.378 2.2782 11.378 1.91001C11.378 1.54182 11.0795 1.24335 10.7113 1.24335C10.3431 1.24335 10.0447 1.54182 10.0447 1.91001C10.0447 2.2782 10.3431 2.57668 10.7113 2.57668Z" fill="#6AB67C"/>
<path id="Vector_12" d="M8.00004 8.66671C8.92051 8.66671 9.66671 7.92051 9.66671 7.00004C9.66671 6.07957 8.92051 5.33337 8.00004 5.33337C7.07957 5.33337 6.33337 6.07957 6.33337 7.00004C6.33337 7.92051 7.07957 8.66671 8.00004 8.66671Z" stroke="#6AB67C" stroke-linecap="round" stroke-linejoin="round"/>
<path id="Vector_13" d="M8 10.6667C9.79167 10.6667 11.3041 11.8459 11.8125 13.4698C10.7321 14.2242 9.41773 14.6667 8 14.6667C6.58225 14.6667 5.26789 14.2242 4.1875 13.4698C4.69587 11.8459 6.20835 10.6667 8 10.6667Z" stroke="#6AB67C" stroke-linecap="round" stroke-linejoin="round"/>
</g>
</g>
<defs>
<clipPath id="clip0_211_150">
<rect width="16" height="16" fill="white"/>
</clipPath>
</defs>
</svg>
