<svg width="12" height="12" viewBox="0 0 12 12" fill="none" xmlns="http://www.w3.org/2000/svg">
<g id="icon / filter" clip-path="url(#clip0_355_1084)">
<g id="Group">
<path id="Vector" d="M11 0H1C0.867392 0 0.740215 0.0526784 0.646447 0.146447C0.552678 0.240215 0.5 0.367392 0.5 0.5V2C0.500028 2.1326 0.552725 2.25975 0.6465 2.3535L4.5 6.207V11.5C4.5 11.5929 4.52586 11.6839 4.57467 11.7629C4.62349 11.8419 4.69334 11.9057 4.77639 11.9472C4.85945 11.9887 4.95242 12.0063 5.0449 11.998C5.13738 11.9896 5.22572 11.9557 5.3 11.9L7.3 10.4C7.3621 10.3534 7.4125 10.293 7.44721 10.2236C7.48193 10.1542 7.5 10.0776 7.5 10V6.207L11.3535 2.3535C11.4473 2.25975 11.5 2.1326 11.5 2V0.5C11.5 0.367392 11.4473 0.240215 11.3536 0.146447C11.2598 0.0526784 11.1326 0 11 0Z" fill="#797A91"/>
</g>
</g>
<defs>
<clipPath id="clip0_355_1084">
<rect width="12" height="12" fill="white"/>
</clipPath>
</defs>
</svg>
