<svg width="20" height="20" viewBox="0 0 20 20" fill="none" xmlns="http://www.w3.org/2000/svg">
<g id="icon / link">
<g id="Group">
<path id="Vector" d="M9.19995 5.19995L11.26 3.13993C12.0088 2.4091 13.0137 2 14.06 2C15.1063 2 16.1112 2.4091 16.86 3.13993C17.5909 3.88874 18 4.89362 18 5.93996C18 6.9863 17.5909 7.99118 16.86 8.73999L14.8 10.8" stroke="#6AB67C" stroke-width="1.5" stroke-linecap="round" stroke-linejoin="round"/>
<path id="Vector_2" d="M10.8 14.8L8.73999 16.86C7.99118 17.5909 6.9863 18 5.93996 18C4.89362 18 3.88874 17.5909 3.13993 16.86C2.4091 16.1112 2 15.1063 2 14.06C2 13.0137 2.4091 12.0088 3.13993 11.26L5.19995 9.19995" stroke="#6AB67C" stroke-width="1.5" stroke-linecap="round" stroke-linejoin="round"/>
<path id="Vector_3" d="M6.79993 13.2L13.2 6.79993" stroke="#6AB67C" stroke-width="1.5" stroke-linecap="round" stroke-linejoin="round"/>
</g>
</g>
</svg>
