<svg width="16" height="16" viewBox="0 0 16 16" fill="none" xmlns="http://www.w3.org/2000/svg">
<g id="lock-circle 1">
<g id="Group">
<path id="Vector" d="M10.6666 5.33335V3.33335C10.6666 1.86069 9.47259 0.666687 7.99992 0.666687C6.52725 0.666687 5.33325 1.86069 5.33325 3.33335V5.33335" stroke="#888CA5" stroke-linecap="round" stroke-linejoin="round"/>
<path id="Vector_2" d="M7.99996 15.3334C10.9455 15.3334 13.3333 12.9455 13.3333 10C13.3333 7.0545 10.9455 4.66669 7.99996 4.66669C5.05444 4.66669 2.66663 7.0545 2.66663 10C2.66663 12.9455 5.05444 15.3334 7.99996 15.3334Z" stroke="#888CA5" stroke-linecap="round" stroke-linejoin="round"/>
<path id="Vector_3" d="M8 9.33337V11.3334" stroke="#888CA5" stroke-linecap="round" stroke-linejoin="round"/>
<path id="Vector_4" d="M7.99992 10C8.36811 10 8.66659 9.70154 8.66659 9.33335C8.66659 8.96516 8.36811 8.66669 7.99992 8.66669C7.63173 8.66669 7.33325 8.96516 7.33325 9.33335C7.33325 9.70154 7.63173 10 7.99992 10Z" fill="#888CA5" stroke="#888CA5" stroke-linecap="round" stroke-linejoin="round"/>
</g>
</g>
</svg>
