<svg width="42" height="48" viewBox="0 0 42 48" fill="none" xmlns="http://www.w3.org/2000/svg">
<g id="Group 1000007349">
<path id="Vector" fill-rule="evenodd" clip-rule="evenodd" d="M38.7725 24.5984C39.2794 23.4535 39.9068 21.862 40.3073 20.6427C40.8496 18.9697 41.3742 16.9741 41.3033 15.4287C41.3033 15.4287 27.4902 19.1504 26.4198 19.8948L27.2209 25.0095L25.8172 25.4243C25.8172 25.4243 25.8137 21.1673 25.8066 21.0113C25.7995 21.1176 25.7889 21.224 25.7818 21.3268C25.7641 19.2497 25.0977 17.2435 23.889 15.5634H23.8925C28.1034 14.7446 34.4553 11.5722 33.7712 9.63688C33.7712 9.63334 33.7641 9.61562 33.7605 9.60144C33.399 8.16945 30.6626 8.30768 29.4787 8.3644C26.076 8.57352 21.4362 10.0551 18.7211 11.7813C17.0268 11.1965 15.1233 11.1575 13.3404 11.2922C14.62 7.86816 15.1092 3.25317 14.2585 1.78573C14.2018 1.66167 14.1309 1.53053 14.0529 1.42419L14.0458 1.4171C12.8548 -0.0857826 11.1499 2.1012 10.4623 3.1043C8.50215 5.94702 6.92838 11.0086 6.86457 14.3688C5.63816 15.6165 4.76975 17.1407 4.31605 18.7889C1.56549 20.4548 1.34218 24.5381 3.9616 26.4912V43.6999C3.9616 44.1146 4.05376 44.5151 4.22389 44.8873C4.67405 45.9755 5.81185 46.7057 6.99218 46.695H9.29613C10.8841 46.7269 12.3232 45.3658 12.2913 43.7708V40.0986H17.4876V45.0043C17.4876 45.419 17.5797 45.8231 17.7499 46.1953C18.2 47.2834 19.3378 48.0101 20.5181 47.9994H22.8221C24.41 48.0313 25.8491 46.6702 25.8172 45.0752V37.9258C26.6715 37.8266 27.5611 37.699 28.3374 37.3197C30.014 36.4442 29.858 33.7894 29.461 31.1558C29.461 31.1558 30.9178 31.3897 31.0773 30.4504C31.2368 29.5076 30.971 25.963 30.971 25.963L38.73 24.7118C38.73 24.7118 38.7654 24.6338 38.7761 24.609" fill="#A0ECB2"/>
<g id="Vector_2">
<path fill-rule="evenodd" clip-rule="evenodd" d="M37.3089 23.7972L29.5534 25.0484C29.5534 25.0484 29.8193 28.593 29.6598 29.5358C29.5003 30.4787 28.0435 30.2412 28.0435 30.2412C28.4405 32.8748 28.6 35.5332 26.9199 36.4087C26.2889 36.7383 25.3213 36.9191 24.3678 37.0183V44.0932C24.3678 44.8695 24.0523 45.6139 23.4887 46.1597C22.9252 46.7091 22.1631 47.0175 21.3691 47.0175H19.0687C18.2712 47.0175 17.5091 46.7091 16.9491 46.1597C16.3855 45.6139 16.07 44.8695 16.07 44.0932V39.1167H10.8383V42.7924C10.8383 43.5651 10.5228 44.3095 9.96279 44.8589C9.39921 45.4047 8.63713 45.7131 7.84315 45.7131H5.5392C4.74523 45.7131 3.98315 45.4047 3.42311 44.8589C2.85953 44.3095 2.54407 43.5651 2.54407 42.7924V20.5043C2.54407 17.8778 3.58616 15.3541 5.44704 13.4614C5.48958 11.845 5.84049 9.84238 6.49977 7.73338C7.08108 5.87249 7.81834 4.21011 8.59459 2.90926C9.78202 0.910142 11.0616 -0.238289 12.0115 0.0417299C13.3124 0.431629 13.5853 3.39132 12.7984 7.08473C12.6389 7.83971 12.4333 8.6266 12.1817 9.42767C12.0789 9.75376 11.9725 10.0763 11.8591 10.3918C12.2277 10.3528 12.5964 10.3315 12.9686 10.3315H13.9398C15.0953 10.3315 16.2295 10.5194 17.3035 10.8774C18.6859 10.009 20.5539 9.16892 22.677 8.51672C24.1977 8.04884 25.6651 7.72983 26.9801 7.56324C29.8335 7.2017 31.9602 7.54906 32.2969 8.5947C32.6514 9.68996 30.9429 11.2531 28.1746 12.5965C27.0829 13.1282 25.8281 13.6244 24.467 14.0427C23.7723 14.2589 23.0882 14.4396 22.4218 14.5921C23.6802 16.3041 24.3678 18.3705 24.3678 20.5043V24.5309L25.8033 24.1056L25.0058 18.9908C26.0763 18.2429 39.8893 14.5212 39.8893 14.5212C40.0417 17.9062 37.3089 23.7972 37.3089 23.7972Z" fill="#FED807"/>
<path fill-rule="evenodd" clip-rule="evenodd" d="M37.3089 23.7972L29.5534 25.0484C29.5534 25.0484 29.8193 28.593 29.6598 29.5358C29.5003 30.4787 28.0435 30.2412 28.0435 30.2412C28.4405 32.8748 28.6 35.5332 26.9199 36.4087C26.2889 36.7383 25.3213 36.9191 24.3678 37.0183V44.0932C24.3678 44.8695 24.0523 45.6139 23.4887 46.1597C22.9252 46.7091 22.1631 47.0175 21.3691 47.0175H19.0687C18.2712 47.0175 17.5091 46.7091 16.9491 46.1597C16.3855 45.6139 16.07 44.8695 16.07 44.0932V39.1167H10.8383V42.7924C10.8383 43.5651 10.5228 44.3095 9.96279 44.8589C9.39921 45.4047 8.63713 45.7131 7.84315 45.7131H5.5392C4.74523 45.7131 3.98315 45.4047 3.42311 44.8589C2.85953 44.3095 2.54407 43.5651 2.54407 42.7924V20.5043C2.54407 17.8778 3.58616 15.3541 5.44704 13.4614C5.48958 11.845 5.84049 9.84238 6.49977 7.73338C7.08108 5.87249 7.81834 4.21011 8.59459 2.90926C9.78202 0.910142 11.0616 -0.238289 12.0115 0.0417299C13.3124 0.431629 13.5853 3.39132 12.7984 7.08473C12.6389 7.83971 12.4333 8.6266 12.1817 9.42767C12.0789 9.75376 11.9725 10.0763 11.8591 10.3918C12.2277 10.3528 12.5964 10.3315 12.9686 10.3315H13.9398C15.0953 10.3315 16.2295 10.5194 17.3035 10.8774C18.6859 10.009 20.5539 9.16892 22.677 8.51672C24.1977 8.04884 25.6651 7.72983 26.9801 7.56324C29.8335 7.2017 31.9602 7.54906 32.2969 8.5947C32.6514 9.68996 30.9429 11.2531 28.1746 12.5965C27.0829 13.1282 25.8281 13.6244 24.467 14.0427C23.7723 14.2589 23.0882 14.4396 22.4218 14.5921C23.6802 16.3041 24.3678 18.3705 24.3678 20.5043V24.5309L25.8033 24.1056L25.0058 18.9908C26.0763 18.2429 39.8893 14.5212 39.8893 14.5212C40.0417 17.9062 37.3089 23.7972 37.3089 23.7972Z" fill="#6AB67C"/>
</g>
<g id="Group">
<path id="Union" fill-rule="evenodd" clip-rule="evenodd" d="M11.866 10.3883C11.9759 10.0764 12.0822 9.75384 12.185 9.4242C12.4367 8.62667 12.6423 7.84333 12.8018 7.08834C12.3941 6.63464 11.8944 6.11714 11.3556 5.57837C10.948 7.6342 10.3773 9.58015 9.57977 10.8668C9.57977 10.8668 9.51243 10.8987 9.38837 10.959C10.8274 10.4415 11.8589 10.3919 11.8589 10.3919C11.8589 10.3919 11.8908 10.3883 11.866 10.3883ZM24.4699 14.0426C25.8274 13.6244 27.0857 13.1281 28.1739 12.6C28.1278 12.164 28.064 11.7351 27.9896 11.3204C24.6045 12.8127 21.1451 13.4259 21.1451 13.4259C21.6555 13.6776 22.2262 14.3475 22.4211 14.592H22.4282C22.4298 14.5904 22.4329 14.5895 22.4358 14.5887C22.4393 14.5878 22.4424 14.5869 22.4424 14.585C23.1017 14.4361 23.7822 14.2553 24.4699 14.0426Z" fill="#93DAA4"/>
</g>
<path id="Vector_3" fill-rule="evenodd" clip-rule="evenodd" d="M28.1742 12.5965C28.1282 12.1605 28.0644 11.7352 27.9899 11.3205C27.7276 9.85304 27.3236 8.53093 26.9797 7.56327C29.8331 7.20173 31.9598 7.54909 32.2965 8.59473C32.651 9.68999 30.9425 11.2531 28.1742 12.5965Z" fill="#0A0A1A"/>
<path id="Vector_4" fill-rule="evenodd" clip-rule="evenodd" d="M12.7978 7.08473C12.3901 6.63103 11.8939 6.11707 11.3551 5.5783C10.4584 4.67799 9.4588 3.7245 8.59393 2.90926C9.78135 0.910142 11.0609 -0.238289 12.0109 0.0417299C13.3117 0.431629 13.5846 3.39132 12.7978 7.08473Z" fill="#0A0A1A"/>
<path id="Vector_5" fill-rule="evenodd" clip-rule="evenodd" d="M16.5445 21.8549C16.5445 24.4424 14.4426 26.5443 11.8551 26.5443H5.37924C2.79173 26.5443 0.689819 24.4424 0.689819 21.8549C0.689819 19.2674 2.79173 17.1655 5.37924 17.1655H11.8551C14.4426 17.1655 16.5445 19.2674 16.5445 21.8549Z" fill="#A7E4B5"/>
<path id="Vector_6" fill-rule="evenodd" clip-rule="evenodd" d="M8.81069 18.6471C9.54441 18.6471 10.1399 19.2426 10.1399 19.9763C10.1399 20.71 9.54441 21.3055 8.81069 21.3055H5.3654C4.63168 21.3055 4.03619 20.71 4.03619 19.9763C4.03619 19.6218 4.17798 19.2851 4.42609 19.037C4.67421 18.7889 5.01449 18.6471 5.3654 18.6471H8.81069Z" fill="white"/>
<path id="Vector_7" fill-rule="evenodd" clip-rule="evenodd" d="M19.887 23.2407C20.8936 23.2407 21.7088 24.0099 21.7088 24.9598C21.7088 25.9098 20.8936 26.6789 19.887 26.6789C18.8803 26.6789 18.0651 25.9098 18.0651 24.9598C18.0651 24.0099 18.8803 23.2407 19.887 23.2407Z" fill="#8CD79D"/>
</g>
</svg>
