<svg width="16" height="16" viewBox="0 0 16 16" fill="none" xmlns="http://www.w3.org/2000/svg">
<g id="e-add 1" clip-path="url(#clip0_211_144)">
<g id="Group">
<path id="Vector" d="M14.6666 7.33335H8.66663V1.33335C8.66663 0.933354 8.39996 0.666687 7.99996 0.666687C7.59996 0.666687 7.33329 0.933354 7.33329 1.33335V7.33335H1.33329C0.933293 7.33335 0.666626 7.60002 0.666626 8.00002C0.666626 8.40002 0.933293 8.66669 1.33329 8.66669H7.33329V14.6667C7.33329 15.0667 7.59996 15.3334 7.99996 15.3334C8.39996 15.3334 8.66663 15.0667 8.66663 14.6667V8.66669H14.6666C15.0666 8.66669 15.3333 8.40002 15.3333 8.00002C15.3333 7.60002 15.0666 7.33335 14.6666 7.33335Z" fill="#F7F7F7"/>
</g>
</g>
<defs>
<clipPath id="clip0_211_144">
<rect width="16" height="16" fill="white"/>
</clipPath>
</defs>
</svg>
