<svg width="12" height="12" viewBox="0 0 12 12" fill="none" xmlns="http://www.w3.org/2000/svg">
<g id="Icon" clip-path="url(#clip0_182_912)">
<g id="Group">
<path id="Vector" d="M6 0.5C2.9675 0.5 0.5 2.9675 0.5 6C0.5 9.0325 2.9675 11.5 6 11.5C9.0325 11.5 11.5 9.0325 11.5 6C11.5 2.9675 9.0325 0.5 6 0.5ZM6 9.25C5.6555 9.25 5.375 8.9695 5.375 8.625C5.375 8.2805 5.6555 8 6 8C6.3445 8 6.625 8.2805 6.625 8.625C6.625 8.9695 6.3445 9.25 6 9.25ZM7.095 6.009C6.744 6.268 6.5515 6.4235 6.495 6.7665L6.4975 7.2505H5.431L5.496 6.6885C5.5985 5.869 6.121 5.485 6.503 5.204C6.89 4.919 7.077 4.7635 7.0915 4.3465C7.1135 3.688 6.6175 3.5235 6.1975 3.5025C5.6515 3.473 5.247 3.777 5.1055 4.312L4.979 4.7955L4.0115 4.542L4.1385 4.058C4.3995 3.0605 5.2285 2.449 6.2485 2.5035C7.404 2.563 8.127 3.3 8.0905 4.381C8.0595 5.3005 7.5025 5.7105 7.0955 6.0095L7.095 6.009Z" fill="#7B7E95"/>
</g>
</g>
<defs>
<clipPath id="clip0_182_912">
<rect width="12" height="12" fill="white"/>
</clipPath>
</defs>
</svg>
