<svg width="16" height="16" viewBox="0 0 16 16" fill="none" xmlns="http://www.w3.org/2000/svg">
<g id="repeat-cycle 1">
<g id="Group">
<path id="Vector" d="M3.63636 12.9109C4.5401 12.9109 5.27273 12.1783 5.27273 11.2745C5.27273 10.3708 4.5401 9.63818 3.63636 9.63818C2.73262 9.63818 2 10.3708 2 11.2745C2 12.1783 2.73262 12.9109 3.63636 12.9109Z" stroke="#6AB67C" stroke-linecap="round" stroke-linejoin="round"/>
<path id="Vector_2" d="M3.07244 2.07275L2.6748 5.23475L5.77953 4.36966" stroke="#6AB67C" stroke-linecap="round" stroke-linejoin="round"/>
<path id="Vector_3" d="M2.6748 5.23469C3.19787 4.22751 3.99585 3.38933 4.97614 2.81744C5.95643 2.24556 7.07881 1.96343 8.21299 2.0038C9.34718 2.04417 10.4467 2.40539 11.3838 3.04552C12.321 3.68565 13.0573 4.57845 13.5075 5.62027C13.9576 6.6621 14.103 7.81022 13.9268 8.93137C13.7507 10.0525 13.2601 11.1007 12.5122 11.9543C11.7642 12.8078 10.7895 13.4318 9.70121 13.7536C8.6129 14.0755 7.45562 14.0821 6.36371 13.7727" stroke="#6AB67C" stroke-linecap="round" stroke-linejoin="round"/>
</g>
</g>
</svg>
