<svg width="16" height="17" viewBox="0 0 16 17" fill="none" xmlns="http://www.w3.org/2000/svg">
<g id="zoom 1">
<g id="Group">
<path id="Vector" d="M15.0407 14.126L11.552 10.6374C12.4271 9.40756 12.8081 7.89384 12.6196 6.3963C12.4311 4.89875 11.6867 3.52671 10.5342 2.55215C9.38161 1.57758 7.90494 1.07165 6.39689 1.13464C4.88884 1.19763 3.45951 1.82494 2.39223 2.89223C1.32494 3.95951 0.697631 5.38884 0.634642 6.89689C0.571653 8.40494 1.07758 9.88161 2.05215 11.0342C3.02671 12.1867 4.39875 12.9311 5.8963 13.1196C7.39384 13.3081 8.90756 12.9271 10.1374 12.052L13.626 15.5407C13.8136 15.7283 14.0681 15.8337 14.3334 15.8337C14.5987 15.8337 14.8531 15.7283 15.0407 15.5407C15.2283 15.3531 15.3337 15.0987 15.3337 14.8334C15.3337 14.5681 15.2283 14.3136 15.0407 14.126ZM2.00005 7.16671C2.00005 6.24373 2.27374 5.34148 2.78652 4.57405C3.2993 3.80662 4.02814 3.20848 4.88086 2.85528C5.73358 2.50207 6.67189 2.40965 7.57714 2.58972C8.48238 2.76978 9.3139 3.21424 9.96655 3.86688C10.6192 4.51953 11.0636 5.35105 11.2437 6.25629C11.4238 7.16154 11.3314 8.09985 10.9782 8.95257C10.6249 9.80529 10.0268 10.5341 9.25937 11.0469C8.49195 11.5597 7.58969 11.8334 6.66671 11.8334C5.42947 11.832 4.2433 11.3399 3.36844 10.465C2.49358 9.59012 2.00146 8.40396 2.00005 7.16671Z" fill="#6AB67C"/>
</g>
</g>
</svg>
