<svg width="48" height="48" viewBox="0 0 48 48" fill="none" xmlns="http://www.w3.org/2000/svg">
<path d="M24 45.75C36.0122 45.75 45.75 36.0122 45.75 24C45.75 11.9878 36.0122 2.25 24 2.25C11.9878 2.25 2.25 11.9878 2.25 24C2.25 36.0122 11.9878 45.75 24 45.75Z" fill="#6AB67C"/>
<path opacity="0.7" d="M19.875 40.125C15.0239 40.131 10.2617 38.8235 6.09375 36.3413C8.85596 40.3419 12.8789 43.3017 17.5202 44.7483C22.1616 46.1948 27.1537 46.0447 31.6998 44.3219C36.2458 42.599 40.0836 39.4028 42.6004 35.2435C45.1173 31.0841 46.168 26.2015 45.585 21.375C43.8376 26.8203 40.4063 31.5702 35.7857 34.9399C31.1651 38.3097 25.5938 40.1253 19.875 40.125Z" fill="#548760"/>
<path d="M42.4125 34.5C42.0357 33.8099 41.8382 33.0363 41.8382 32.25C41.8382 31.4638 42.0357 30.6901 42.4125 30L42.4688 29.8913C43.1433 28.7237 43.4984 27.399 43.4983 26.0505C43.4981 24.702 43.1428 23.3774 42.468 22.2099C41.7932 21.0425 40.8228 20.0734 39.6544 19.4001C38.4861 18.7269 37.161 18.3733 35.8125 18.375H35.625H35.595C30.75 18.375 21 24 21 24V39.375C24.375 36 27.375 46.125 35.565 46.125H35.625H35.8125C37.1396 46.1268 38.4444 45.7845 39.5997 45.1315C40.755 44.4786 41.7213 43.5373 42.4043 42.3994C43.0873 41.2616 43.4637 39.9662 43.4966 38.6395C43.5296 37.3129 43.2181 36.0003 42.5925 34.83L42.4125 34.5Z" fill="#6AB67C"/>
<path d="M41.0963 35.2125C40.601 34.3036 40.3415 33.2851 40.3415 32.25C40.3415 31.2149 40.601 30.1964 41.0963 29.2875C41.6686 28.3495 41.9809 27.2759 42.0009 26.1773C42.0209 25.0786 41.7479 23.9944 41.2101 23.0361C40.6722 22.0779 39.8889 21.2802 38.9406 20.725C37.9923 20.1698 36.9133 19.8771 35.8144 19.8771C34.7155 19.8771 33.6365 20.1698 32.6882 20.725C31.7399 21.2802 30.9566 22.0779 30.4187 23.0361C29.8809 23.9944 29.6079 25.0786 29.6279 26.1773C29.6479 27.2759 29.9601 28.3495 30.5325 29.2875C31.0278 30.1964 31.2873 31.2149 31.2873 32.25C31.2873 33.2851 31.0278 34.3036 30.5325 35.2125C29.9601 36.1505 29.6479 37.2241 29.6279 38.3228C29.6079 39.4215 29.8809 40.5056 30.4187 41.4639C30.9566 42.4221 31.7399 43.2199 32.6882 43.7751C33.6365 44.3303 34.7155 44.6229 35.8144 44.6229C36.9133 44.6229 37.9923 44.3303 38.9406 43.7751C39.8889 43.2199 40.6722 42.4221 41.2101 41.4639C41.7479 40.5056 42.0209 39.4215 42.0009 38.3228C41.9809 37.2241 41.6686 36.1505 41.0963 35.2125Z" fill="#393C54"/>
<path d="M17.625 20.25C20.3174 20.25 22.5 18.0674 22.5 15.375C22.5 12.6826 20.3174 10.5 17.625 10.5C14.9326 10.5 12.75 12.6826 12.75 15.375C12.75 18.0674 14.9326 20.25 17.625 20.25Z" fill="white"/>
<path d="M16.5 18.375C17.5355 18.375 18.375 17.5355 18.375 16.5C18.375 15.4645 17.5355 14.625 16.5 14.625C15.4645 14.625 14.625 15.4645 14.625 16.5C14.625 17.5355 15.4645 18.375 16.5 18.375Z" fill="#515570"/>
<path d="M33 18C35.6924 18 37.875 15.8174 37.875 13.125C37.875 10.4326 35.6924 8.25 33 8.25C30.3076 8.25 28.125 10.4326 28.125 13.125C28.125 15.8174 30.3076 18 33 18Z" fill="white"/>
<path d="M34.6875 13.3125C35.723 13.3125 36.5625 12.473 36.5625 11.4375C36.5625 10.402 35.723 9.5625 34.6875 9.5625C33.652 9.5625 32.8125 10.402 32.8125 11.4375C32.8125 12.473 33.652 13.3125 34.6875 13.3125Z" fill="#515570"/>
<path d="M40.245 21.75C39.6693 21.1567 38.9803 20.685 38.2189 20.3629C37.4575 20.0408 36.6392 19.8748 35.8125 19.8748C34.9858 19.8748 34.1675 20.0408 33.4061 20.3629C32.6447 20.685 31.9557 21.1567 31.38 21.75H40.245Z" fill="#FF8475"/>
<path d="M31.0388 42.375C31.6193 43.079 32.3483 43.6458 33.1736 44.035C33.9989 44.4241 34.9001 44.6259 35.8125 44.6259C36.725 44.6259 37.6261 44.4241 38.4514 44.035C39.2767 43.6458 40.0057 43.079 40.5863 42.375H31.0388Z" fill="#FF8475"/>
<path d="M30.0262 23.8875C30.1659 24.0401 30.3356 24.1622 30.5247 24.2461C30.7137 24.33 30.9181 24.3739 31.125 24.375H38.625C39.0228 24.375 39.4044 24.217 39.6857 23.9357C39.967 23.6544 40.125 23.2728 40.125 22.875V21.75H31.38C30.7862 22.3616 30.3254 23.0893 30.0262 23.8875Z" fill="white"/>
<path d="M38.625 39.75H31.125C30.8928 39.7506 30.6639 39.8051 30.4563 39.9092C30.2487 40.0133 30.0681 40.1642 29.9288 40.35C30.1727 41.0899 30.5544 41.777 31.0538 42.375H40.125V41.25C40.125 40.8522 39.967 40.4706 39.6857 40.1893C39.4044 39.908 39.0228 39.75 38.625 39.75Z" fill="white"/>
<path opacity="0.3" d="M31.125 38.4375C31.1249 37.3047 31.4376 36.1938 32.0288 35.2275C32.524 34.3186 32.7836 33.3 32.7836 32.265C32.7836 31.2299 32.524 30.2114 32.0288 29.3025C31.4822 28.4192 31.1674 27.4122 31.1135 26.3749C31.0596 25.3376 31.2684 24.3034 31.7205 23.3682C32.1725 22.4331 32.8533 21.6271 33.6997 21.025C34.5461 20.4229 35.5308 20.0441 36.5625 19.9237C35.6924 19.812 34.8084 19.8876 33.9699 20.1454C33.1314 20.4033 32.3577 20.8374 31.7007 21.4188C31.0437 22.0001 30.5186 22.7152 30.1606 23.5161C29.8026 24.317 29.62 25.1852 29.625 26.0625C29.6249 27.1953 29.9376 28.3061 30.5288 29.2725C31.024 30.1814 31.2836 31.1999 31.2836 32.235C31.2836 33.27 31.024 34.2886 30.5288 35.1975C29.9481 36.1353 29.6292 37.2115 29.6052 38.3143C29.5811 39.4171 29.8529 40.5062 30.3922 41.4684C30.9315 42.4307 31.7186 43.2309 32.6718 43.786C33.625 44.3411 34.7095 44.6308 35.8125 44.625C36.0633 44.6239 36.3137 44.6076 36.5625 44.5762C35.0627 44.3939 33.6816 43.6688 32.6798 42.5378C31.678 41.4069 31.125 39.9483 31.125 38.4375Z" fill="#515570"/>
<path d="M10.125 12C10.125 12 11.625 8.25 16.875 8.25" stroke="#393C54" stroke-width="4" stroke-miterlimit="10" stroke-linecap="round"/>
<path d="M38.685 7.75124C38.685 7.75124 36 4.72874 31.065 6.49874" stroke="#393C54" stroke-width="4" stroke-miterlimit="10" stroke-linecap="round"/>
</svg>
