<svg width="25" height="24" viewBox="0 0 25 24" fill="none" xmlns="http://www.w3.org/2000/svg">
<g id="crypto / solana" clip-path="url(#clip0_354_7836)">
<g id="Layer 2">
<g id="Layer 1">
<g id="Solana SOL">
<path id="Vector" d="M24.1213 14.9025C23.5496 17.2075 22.3068 19.2911 20.5504 20.8893C18.794 22.4875 16.603 23.5286 14.2546 23.8806C11.9063 24.2327 9.50638 23.8799 7.35866 22.8669C5.21094 21.8539 3.41204 20.2264 2.18972 18.1903C0.967411 16.1542 0.376656 13.8011 0.492258 11.429C0.60786 9.05688 1.42462 6.77242 2.83912 4.86486C4.25363 2.9573 6.20226 1.51242 8.4383 0.713159C10.6743 -0.0860984 13.0972 -0.203787 15.4002 0.374995C18.4802 1.14908 21.1278 3.11294 22.7626 5.83611C24.3974 8.55929 24.886 11.8196 24.1213 14.9025Z" fill="#000101"/>
<path id="Vector_2" d="M21.9542 14.3587C21.4881 16.2301 20.4775 17.9212 19.0503 19.2181C17.6232 20.5151 15.8435 21.3596 13.9364 21.6448C12.0293 21.93 10.0804 21.6431 8.33635 20.8204C6.59229 19.9977 5.13135 18.6762 4.13832 17.023C3.14529 15.3698 2.66478 13.4591 2.75757 11.5328C2.85037 9.60639 3.5123 7.75081 4.65963 6.20074C5.80696 4.65066 7.38816 3.47573 9.20322 2.82454C11.0183 2.17335 12.9857 2.07518 14.8565 2.54242C17.364 3.16866 19.5202 4.76516 20.8512 6.98094C22.1821 9.19672 22.5789 11.8504 21.9542 14.3587Z" fill="#000101"/>
<path id="Vector_3" d="M8.57621 14.4038C8.61094 14.3683 8.65235 14.3401 8.69804 14.3208C8.74374 14.3015 8.79281 14.2915 8.84242 14.2913H18.141C18.193 14.2942 18.2418 14.3174 18.2769 14.356C18.312 14.3946 18.3305 14.4454 18.3284 14.4975C18.3252 14.5446 18.3068 14.5893 18.2759 14.625L16.4387 16.4588C16.404 16.4942 16.3626 16.5224 16.3169 16.5417C16.2712 16.561 16.2221 16.5711 16.1725 16.5713H6.87398C6.83376 16.5738 6.79375 16.5636 6.75967 16.5421C6.72559 16.5206 6.69918 16.4889 6.68421 16.4514C6.66924 16.414 6.66648 16.3728 6.67632 16.3337C6.68616 16.2946 6.7081 16.2596 6.739 16.2338L8.57621 14.4038Z" fill="url(#paint0_linear_354_7836)"/>
<path id="Vector_4" d="M8.57626 7.54121C8.61098 7.50578 8.65239 7.47759 8.69809 7.45828C8.74379 7.43897 8.79286 7.42892 8.84247 7.42871H18.141C18.1663 7.42869 18.1913 7.43378 18.2145 7.44367C18.2378 7.45355 18.2588 7.46804 18.2763 7.48625C18.2938 7.50447 18.3075 7.52603 18.3164 7.54965C18.3254 7.57327 18.3295 7.59846 18.3285 7.62371C18.328 7.67249 18.3093 7.71932 18.276 7.75496L16.4388 9.59621C16.4041 9.63164 16.3626 9.65983 16.3169 9.67914C16.2713 9.69846 16.2222 9.7085 16.1726 9.70871H6.87403C6.82197 9.7058 6.77315 9.68255 6.73808 9.64396C6.70301 9.60538 6.68451 9.55456 6.68656 9.50246C6.68976 9.45539 6.70819 9.41064 6.73905 9.37496L8.57626 7.54121Z" fill="url(#paint1_linear_354_7836)"/>
<path id="Vector_5" d="M16.4388 10.9499C16.4041 10.9145 16.3626 10.8863 16.3169 10.867C16.2713 10.8477 16.2222 10.8376 16.1726 10.8374H6.87403C6.82197 10.8403 6.77315 10.8636 6.73808 10.9021C6.70301 10.9407 6.68451 10.9916 6.68656 11.0437C6.68976 11.0907 6.70819 11.1355 6.73905 11.1712L8.57626 13.0012C8.61099 13.0366 8.6524 13.0648 8.69809 13.0841C8.74379 13.1034 8.79286 13.1134 8.84247 13.1137H18.141C18.1661 13.1132 18.1909 13.1077 18.2139 13.0977C18.2369 13.0876 18.2577 13.0731 18.2751 13.055C18.2926 13.0369 18.3062 13.0155 18.3154 12.9921C18.3245 12.9687 18.329 12.9438 18.3285 12.9187C18.328 12.8699 18.3093 12.823 18.276 12.7874L16.4388 10.9499Z" fill="url(#paint2_linear_354_7836)"/>
</g>
</g>
</g>
</g>
<defs>
<linearGradient id="paint0_linear_354_7836" x1="17.7698" y1="7.70626" x2="10.6256" y2="18.179" gradientUnits="userSpaceOnUse">
<stop stop-color="#00FFA3"/>
<stop offset="1" stop-color="#DC1FFF"/>
</linearGradient>
<linearGradient id="paint1_linear_354_7836" x1="14.5791" y1="5.52746" x2="7.43491" y2="16.0002" gradientUnits="userSpaceOnUse">
<stop stop-color="#00FFA3"/>
<stop offset="1" stop-color="#DC1FFF"/>
</linearGradient>
<linearGradient id="paint2_linear_354_7836" x1="16.1688" y1="6.61115" x2="9.02466" y2="17.0839" gradientUnits="userSpaceOnUse">
<stop stop-color="#00FFA3"/>
<stop offset="1" stop-color="#DC1FFF"/>
</linearGradient>
<clipPath id="clip0_354_7836">
<rect width="24" height="24" fill="white" transform="translate(0.5)"/>
</clipPath>
</defs>
</svg>
