<svg width="24" height="24" viewBox="0 0 24 24" fill="none" xmlns="http://www.w3.org/2000/svg">
<g id="square-question 1">
<g id="Group">
<path id="Vector" d="M19 2H5C3.346 2 2 3.346 2 5V19C2 20.654 3.346 22 5 22H19C20.654 22 22 20.654 22 19V5C22 3.346 20.654 2 19 2ZM12 18.5C11.311 18.5 10.75 17.939 10.75 17.25C10.75 16.561 11.311 16 12 16C12.689 16 13.25 16.561 13.25 17.25C13.25 17.939 12.689 18.5 12 18.5ZM14.191 12.018C13.488 12.536 13.104 12.847 12.99 13.533L12.995 14.501H10.862L10.992 13.377C11.197 11.738 12.242 10.97 13.006 10.408C13.78 9.838 14.154 9.527 14.182 8.694C14.226 7.376 13.234 7.048 12.393 7.005C11.306 6.942 10.492 7.554 10.211 8.624L9.957 9.591L8.022 9.084L8.276 8.116C8.799 6.122 10.444 4.898 12.496 5.007C14.807 5.126 16.253 6.599 16.181 8.761C16.119 10.601 15.005 11.421 14.191 12.019V12.018Z" fill="#8D91A4"/>
</g>
</g>
</svg>
