<svg width="16" height="17" viewBox="0 0 16 17" fill="none" xmlns="http://www.w3.org/2000/svg">
<g id="icon / tether (USDT)">
<path id="Vector" d="M8.00008 15.8334C12.0502 15.8334 15.3334 12.5502 15.3334 8.50008C15.3334 4.44999 12.0502 1.16675 8.00008 1.16675C3.94999 1.16675 0.666748 4.44999 0.666748 8.50008C0.666748 12.5502 3.94999 15.8334 8.00008 15.8334Z" fill="#59AF99"/>
<path id="Vector_2" d="M8.76111 7.59726V6.73119H10.7316V5.36499H5.26311V6.73119H7.23871V7.59726C5.58358 7.67719 4.34131 8.00939 4.34131 8.40392C4.34131 8.79846 5.58211 9.13212 7.23871 9.21059V12.0706H8.76111V9.21059C10.4162 9.13139 11.6585 8.79919 11.6585 8.40392C11.6585 8.00866 10.4199 7.67719 8.76111 7.59726ZM7.99991 8.95832C6.20764 8.95832 4.75491 8.68112 4.75491 8.34746C4.75491 8.06072 5.81311 7.81946 7.23724 7.75492V8.73319C7.48217 8.74419 7.73664 8.75079 7.99844 8.75079C8.26024 8.75079 8.51617 8.74419 8.75964 8.73319V7.75492C10.1838 7.81946 11.242 8.06072 11.242 8.34746C11.2449 8.68479 9.79217 8.95832 7.99991 8.95832Z" fill="white"/>
</g>
</svg>
