<svg width="16" height="16" viewBox="0 0 16 16" fill="none" xmlns="http://www.w3.org/2000/svg">
<g id="user-position-2 1">
<g id="Group">
<path id="Vector" d="M8 4.66669C9.1046 4.66669 10 3.77125 10 2.66669C10 1.56212 9.1046 0.666687 8 0.666687C6.8954 0.666687 6 1.56212 6 2.66669C6 3.77125 6.8954 4.66669 8 4.66669Z" stroke="#888CA5" stroke-linecap="round" stroke-linejoin="round"/>
<path id="Vector_2" d="M14.6666 10.5542C15.0946 10.8928 15.3333 11.2696 15.3333 11.6667C15.3333 13.1395 12.05 14.3333 7.99996 14.3333C3.94987 14.3333 0.666626 13.1395 0.666626 11.6667C0.666626 11.2696 0.905286 10.8928 1.33329 10.5542" stroke="#888CA5" stroke-linecap="round" stroke-linejoin="round"/>
<path id="Vector_3" d="M8 7C5.60691 7 4 8.70913 4 11C6.88873 11.6912 9.11127 11.6912 12 11C12 8.70913 10.3931 7 8 7Z" stroke="#888CA5" stroke-linecap="round" stroke-linejoin="round"/>
</g>
</g>
</svg>
