<svg width="16" height="16" viewBox="0 0 16 16" fill="none" xmlns="http://www.w3.org/2000/svg">
<g id="wallet-90 1">
<g id="Group">
<path id="Vector" d="M4.72727 3.09094H3.09091C2.48818 3.09094 2 3.57912 2 4.18185C2 4.78458 2.48818 5.27276 3.09091 5.27276" stroke="#6AB67C" stroke-linecap="round" stroke-linejoin="round"/>
<path id="Vector_2" d="M4.72729 5.27273V2H12.3637V5.27273" stroke="#6AB67C" stroke-linecap="round" stroke-linejoin="round"/>
<path id="Vector_3" d="M14 5.27267H3.09091C2.48818 5.27267 2 4.78449 2 4.18176V12.3636C2 13.2674 2.73255 13.9999 3.63636 13.9999H14V5.27267Z" stroke="#6AB67C" stroke-linecap="round" stroke-linejoin="round"/>
<path id="Vector_4" d="M10.7274 10.7272C11.3299 10.7272 11.8183 10.2388 11.8183 9.63632C11.8183 9.03383 11.3299 8.54541 10.7274 8.54541C10.1249 8.54541 9.63647 9.03383 9.63647 9.63632C9.63647 10.2388 10.1249 10.7272 10.7274 10.7272Z" stroke="#6AB67C" stroke-linecap="round" stroke-linejoin="round"/>
</g>
</g>
</svg>
