<svg width="16" height="16" viewBox="0 0 16 16" fill="none" xmlns="http://www.w3.org/2000/svg">
<g id="wallet 1">
<g id="Group">
<path id="Vector" d="M14 11.3333H12C10.8953 11.3333 10 10.4379 10 9.33325C10 8.22859 10.8953 7.33325 12 7.33325H14" stroke="#6AB67C" stroke-linecap="round" stroke-linejoin="round"/>
<path id="Vector_2" d="M8 4.66659H12.6667C13.4031 4.66659 14 5.26354 14 5.99992V8.99992V12.6666C14 13.403 13.4031 13.9999 12.6667 13.9999H3.33333C2.59695 13.9999 2 13.403 2 12.6666V3.33325V3.66659" stroke="#6AB67C" stroke-linecap="round" stroke-linejoin="round"/>
<path id="Vector_3" d="M11.3333 2H3.33333C2.59695 2 2 2.59695 2 3.33333C2 4.06971 2.59695 4.66667 3.33333 4.66667H8" stroke="#6AB67C" stroke-linecap="round" stroke-linejoin="round"/>
</g>
</g>
</svg>
